<?xml version="1.0" standalone="no"?>
<!DOCTYPE svg PUBLIC "-//W3C//DTD SVG 1.1//EN" "http://www.w3.org/Graphics/SVG/1.1/DTD/svg11.dtd" >
<svg>
<metadata>
Created by FontForge 20110222 at Fri Dec 27 08:47:01 2013
 By deploy user
Copyright 1990-1993 Bitstream Inc.  All rights reserved.
</metadata>
<defs>
<font id="AvantGardeITCbyBT-BookOblique" horiz-adv-x="1024" >
  <font-face 
    font-family="AvantGarde Bk BT"
    font-weight="400"
    font-style="oblique"
    font-stretch="normal"
    units-per-em="2048"
    panose-1="2 11 4 2 2 2 2 9 2 4"
    ascent="1638"
    descent="-410"
    x-height="1100"
    cap-height="1456"
    bbox="-342 -483 2605 1974"
    underline-thickness="113"
    underline-position="-122"
    slope="-11"
    unicode-range="U+0020-F002"
  />
<missing-glyph horiz-adv-x="1229" 
d="M102 -362v1806h1024v-1806h-1024zM217 -248h795v1577h-795v-1577z" />
    <glyph glyph-name=".notdef" horiz-adv-x="1229" 
d="M102 -362v1806h1024v-1806h-1024zM217 -248h795v1577h-795v-1577z" />
    <glyph glyph-name=".null" horiz-adv-x="0" 
 />
    <glyph glyph-name="nonmarkingreturn" horiz-adv-x="578" 
 />
    <glyph glyph-name="space" unicode=" " horiz-adv-x="578" 
 />
    <glyph glyph-name="exclam" unicode="!" horiz-adv-x="588" 
d="M152 375l210 1081h144l-209 -1081h-145zM80 0l43 227h145l-45 -227h-143z" />
    <glyph glyph-name="quotedbl" unicode="&#x22;" horiz-adv-x="569" 
d="M473 1434v-553h-102v553h102zM199 1434v-553h-101v553h101z" />
    <glyph glyph-name="numbersign" unicode="#" horiz-adv-x="1575" 
d="M975 864h-266l-97 -276h267zM918 1454l-168 -483h264l172 483h127l-170 -483h315l-37 -107h-317l-98 -276h340l-37 -109h-340l-170 -479h-129l172 479h-269l-172 -479h-127l170 479h-327l39 109h325l101 276h-353l35 107h354l173 483h127z" />
    <glyph glyph-name="dollar" unicode="$" horiz-adv-x="1157" 
d="M379 -190l49 235q-158 41 -240 136t-82 237q1 19 4 54q0 3 1 5h139q0 -2 -1 -6q-3 -30 -3 -45q0 -123 78.5 -191.5t218.5 -68.5q129 0 202.5 69.5t73.5 190.5q0 157 -257 304q-5 3 -9 5q-159 91 -213.5 168.5t-54.5 192.5q0 160 105 266t267 106h9l36 201h111l-39 -209
q132 -29 203.5 -123t71.5 -239v-29h-138v27q0 110 -66.5 176.5t-176.5 66.5q-108 0 -178 -65.5t-70 -165.5q0 -48 18.5 -90t53.5 -74q52 -48 170 -116q43 -25 63 -37q129 -82 181 -165.5t52 -203.5q0 -175 -109.5 -278.5t-305.5 -110.5l-43 -223h-121z" />
    <glyph glyph-name="percent" unicode="%" horiz-adv-x="1796" 
d="M90 1126q0 72 27.5 137.5t79.5 116.5q51 51 115.5 78t136.5 27t137.5 -27t115.5 -78q52 -51 79.5 -116.5t27.5 -137.5t-27.5 -137t-79.5 -117q-50 -50 -115.5 -77t-137.5 -27t-136.5 27t-115.5 77q-52 52 -79.5 117.5t-27.5 136.5zM219 1126q0 -95 66 -161t161 -66
t160.5 66t65.5 161q0 96 -65 161t-161 65q-95 0 -161 -65.5t-66 -160.5zM1229 1487h117l-779 -1518h-116zM1114 330q0 -96 66 -162t161 -66q96 0 162 66t66 162q0 95 -66 160t-162 65q-95 0 -161 -65.5t-66 -159.5zM987 330q0 72 27 137.5t78 116.5q50 50 115.5 77t138.5 27
q72 0 137.5 -27t115.5 -77q51 -51 78 -116.5t27 -137.5q0 -73 -26.5 -138t-78.5 -116q-50 -51 -115.5 -78t-137.5 -27q-73 0 -138.5 27t-115.5 78q-51 50 -78 115.5t-27 138.5z" />
    <glyph glyph-name="ampersand" unicode="&#x26;" horiz-adv-x="1389" 
d="M580 907q135 48 202.5 116t67.5 157q0 76 -49 125t-125 49q-97 0 -160 -57.5t-63 -145.5q0 -65 32 -127t95 -117zM831 422l-301 321q-173 -59 -264.5 -150.5t-91.5 -207.5q0 -120 77 -198t195 -78q106 0 202 78t183 235zM1317 98l-90 -98l-297 317
q-103 -173 -222.5 -258.5t-261.5 -85.5q-177 0 -296 119.5t-119 298.5q0 158 99.5 274t297.5 191q-61 82 -90 150.5t-29 132.5q0 150 102 249t261 99q145 0 235 -81.5t90 -211.5q0 -118 -85 -220.5t-242 -172.5l243 -256l244 416h162l-307 -521z" />
    <glyph glyph-name="quotesingle" unicode="'" horiz-adv-x="295" 
d="M199 1434v-553h-101v553h101z" />
    <glyph glyph-name="parenleft" unicode="(" horiz-adv-x="541" 
d="M297 1024l-191 -979q-5 -34 -7.5 -54t-2.5 -34q0 -91 48.5 -155t136.5 -89l-25 -129q-134 29 -215.5 131.5t-81.5 241.5q0 23 4.5 58t14.5 82l188 976q39 197 151 297.5t308 114.5l-25 -131q-139 -26 -205.5 -96.5t-97.5 -233.5z" />
    <glyph glyph-name="parenright" unicode=")" horiz-adv-x="541" 
d="M168 45l190 979q6 34 8.5 54t2.5 34q0 92 -48 155.5t-135 88.5l25 129q134 -29 214.5 -131t80.5 -242q0 -28 -4.5 -65t-12.5 -76l-190 -977q-39 -197 -150.5 -296.5t-308.5 -113.5l27 129q138 26 203.5 96.5t97.5 235.5z" />
    <glyph glyph-name="asterisk" unicode="*" 
d="M571 981l-182 -264l-106 74l198 251l-297 86l39 121l291 -98v305h115v-305l289 94l40 -115l-303 -83l207 -259l-104 -69z" />
    <glyph glyph-name="plus" unicode="+" horiz-adv-x="1706" 
d="M903 1221v-562h549v-98h-549v-561h-98v561h-551v98h551v562h98z" />
    <glyph glyph-name="comma" unicode="," horiz-adv-x="578" 
d="M-72 -147l254 376h156l-254 -376h-156z" />
    <glyph glyph-name="hyphen" unicode="-" horiz-adv-x="659" 
d="M580 616l-25 -133h-471l25 133h471z" />
    <glyph glyph-name="period" unicode="." horiz-adv-x="578" 
d="M92 0l45 233h142l-43 -233h-144z" />
    <glyph glyph-name="slash" unicode="/" horiz-adv-x="569" 
d="M461 1485h119l-506 -1675h-121z" />
    <glyph glyph-name="zero" unicode="0" horiz-adv-x="1157" 
d="M141 1012q46 235 176.5 355t341.5 120q216 0 340.5 -109.5t124.5 -296.5q0 -32 -4.5 -72.5t-13.5 -86.5l-94 -478q-48 -236 -178 -355.5t-340 -119.5q-221 0 -342 109.5t-121 308.5q0 33 4 68t12 77zM874 465l93 471q10 52 15 88.5t5 65.5q0 118 -88.5 191t-234.5 73
q-170 0 -258 -82t-127 -281l-93 -473q-9 -47 -13.5 -84.5t-4.5 -68.5q0 -119 87.5 -191t233.5 -72q171 0 258.5 81.5t126.5 281.5z" />
    <glyph glyph-name="one" unicode="1" horiz-adv-x="1157" 
d="M653 0h-139l236 1225l-451 -490l-100 86l583 635h154z" />
    <glyph glyph-name="two" unicode="2" horiz-adv-x="1157" 
d="M936 0h-930l25 119l430 375q24 21 71 61q404 349 404 547q0 114 -70 182t-188 68q-144 0 -232 -92.5t-120 -278.5h-138q25 239 150 371.5t326 132.5q179 0 294 -111.5t115 -281.5q0 -127 -77 -247t-314 -329l-453 -397h729z" />
    <glyph glyph-name="three" unicode="3" horiz-adv-x="1157" 
d="M350 1104h-133q42 196 146 288.5t284 92.5q174 0 279.5 -100t105.5 -263q0 -129 -68.5 -213.5t-201.5 -120.5q121 -41 183.5 -131.5t62.5 -224.5q0 -200 -140.5 -331.5t-355.5 -131.5q-210 0 -330.5 111.5t-120.5 306.5q0 23 0.5 34.5t2.5 22.5h135q0 -6 -1 -19t-1 -19
q0 -143 82.5 -223.5t230.5 -80.5q157 0 253.5 92t96.5 242q0 145 -89.5 220.5t-270.5 85.5l24 124h17q160 0 256 76.5t96 202.5q0 101 -67 160t-183 59q-120 0 -191.5 -63.5t-101.5 -196.5z" />
    <glyph glyph-name="four" unicode="4" horiz-adv-x="1157" 
d="M170 410h559l164 831zM791 0h-142l53 274h-712l30 160l881 1022h172l-203 -1046h183l-27 -136h-182z" />
    <glyph glyph-name="five" unicode="5" horiz-adv-x="1157" 
d="M174 432v-26q0 -135 94 -219.5t244 -84.5q179 0 287 119.5t108 319.5q0 143 -92.5 230t-245.5 87q-102 0 -181.5 -38.5t-137.5 -117.5l-113 39l260 715h701l-33 -129h-569l-138 -397q74 31 135 46t113 15q196 0 316 -128.5t120 -338.5q0 -245 -146 -399t-380 -154
q-224 0 -350.5 119.5t-126.5 331.5v10h135z" />
    <glyph glyph-name="six" unicode="6" horiz-adv-x="1157" 
d="M913 549q0 156 -96 252t-252 96q-172 0 -282.5 -122t-110.5 -314q0 -160 93 -258.5t243 -98.5q178 0 291.5 124.5t113.5 320.5zM743 1454h172l-411 -452q23 2 47.5 4t46.5 2q210 0 331.5 -122t121.5 -333q0 -252 -150.5 -417t-380.5 -165q-211 0 -349 135.5t-138 339.5
q0 68 13.5 132.5t41.5 126.5q51 111 226 293l48 51z" />
    <glyph glyph-name="seven" unicode="7" horiz-adv-x="1157" 
d="M283 0h-158l825 1319h-661l24 137h838l-23 -115z" />
    <glyph glyph-name="eight" unicode="8" horiz-adv-x="1157" 
d="M653 1352q-129 0 -208.5 -81t-79.5 -212q0 -95 69.5 -153t181.5 -58q127 0 206 76.5t79 199.5q0 102 -67.5 164t-180.5 64zM555 733q-161 0 -259.5 -93t-98.5 -245q0 -130 83 -210.5t220 -80.5q156 0 264 98.5t108 239.5q0 132 -86 211.5t-231 79.5zM358 815
q-65 59 -97 121.5t-32 132.5q0 177 122.5 296.5t307.5 119.5q168 0 273.5 -100.5t105.5 -258.5q0 -114 -55.5 -193.5t-169.5 -127.5q103 -58 152 -142t49 -202q0 -207 -146 -348.5t-362 -141.5q-208 0 -331.5 115.5t-123.5 310.5q0 151 81.5 261.5t225.5 156.5z" />
    <glyph glyph-name="nine" unicode="9" horiz-adv-x="1157" 
d="M244 905q0 -156 96 -252t252 -96q172 0 282.5 122.5t110.5 313.5q0 161 -93 260t-243 99q-177 0 -291 -125.5t-114 -321.5zM414 0h-172l411 452q-23 -2 -47.5 -4t-46.5 -2q-210 0 -331.5 122t-121.5 333q0 253 151 418.5t380 165.5q211 0 349 -135t138 -340
q0 -68 -13.5 -132.5t-41.5 -125.5q-51 -114 -231 -301q-29 -30 -43 -45z" />
    <glyph glyph-name="colon" unicode=":" horiz-adv-x="588" 
d="M96 0l45 233h142l-45 -233h-142zM262 866l47 234h142l-45 -234h-144z" />
    <glyph glyph-name="semicolon" unicode=";" horiz-adv-x="588" 
d="M-61 -147l254 376h155l-254 -376h-155zM256 866l45 234h141l-45 -234h-141z" />
    <glyph glyph-name="less" unicode="&#x3c;" horiz-adv-x="1706" 
d="M1442 1026l-1022 -416l1022 -413v-109l-1178 481v82l1178 484v-109z" />
    <glyph glyph-name="equal" unicode="=" horiz-adv-x="1706" 
d="M1452 473v-98h-1198v98h1198zM1452 846v-98h-1198v98h1198z" />
    <glyph glyph-name="greater" unicode="&#x3e;" horiz-adv-x="1706" 
d="M1442 651v-82l-1178 -481v109l1022 413l-1022 416v109z" />
    <glyph glyph-name="question" unicode="?" horiz-adv-x="948" 
d="M272 0l45 229h140l-45 -229h-140zM344 371q14 125 60 215t133 164q41 35 114.5 91.5t91.5 78.5q42 49 61 96t19 98q0 106 -72 175t-184 69q-135 0 -228.5 -84.5t-123.5 -235.5h-143q41 211 172.5 329t324.5 118q188 0 298 -99t110 -266q0 -66 -21 -127.5t-61 -111.5
q-51 -65 -169 -153q-44 -33 -64 -50q-77 -64 -119 -138t-58 -169h-141z" />
    <glyph glyph-name="at" unicode="@" horiz-adv-x="2048" 
d="M1298 836l60 125h94l-139 -562q-10 -44 -13.5 -62.5t-3.5 -29.5q0 -43 28.5 -67.5t78.5 -24.5q52 0 106.5 21t104.5 61q97 77 151 204.5t54 282.5q0 254 -198 417t-509 163q-175 0 -320 -49.5t-262 -149.5q-147 -126 -222 -290.5t-75 -362.5q0 -174 60 -305t184 -232
q102 -82 244 -128t301 -46q171 0 334.5 49.5t300.5 143.5l39 -55q-147 -111 -311 -166.5t-343 -55.5q-191 0 -347 46.5t-275 138.5q-155 118 -229 273.5t-74 361.5q0 204 86 381.5t252 314.5q132 109 298.5 165t360.5 56q162 0 308 -44t249 -124q129 -99 194.5 -228
t65.5 -280q0 -171 -62 -309.5t-181 -232.5q-70 -54 -149 -82.5t-161 -28.5q-97 0 -144.5 37.5t-47.5 113.5q0 4 1 14t1 15q-51 -87 -127 -133.5t-168 -46.5q-153 0 -233 83.5t-80 244.5q0 230 135 388t329 158q94 0 158 -41t96 -122zM1210 469l62 248q-18 93 -75.5 145.5
t-139.5 52.5q-154 0 -254.5 -133.5t-100.5 -337.5q0 -111 55 -173t152 -62q107 0 189.5 71.5t111.5 188.5z" />
    <glyph glyph-name="A" unicode="A" horiz-adv-x="1223" 
d="M883 586l-146 770l-424 -770h570zM-158 0l791 1458h221l287 -1458h-144l-88 453h-667l-244 -453h-156z" />
    <glyph glyph-name="B" unicode="B" horiz-adv-x="1085" 
d="M387 1331l-96 -506q37 -4 75 -6t78 -2q216 0 323 74.5t107 224.5q0 119 -82.5 169t-283.5 50q-35 0 -114 -3zM264 684l-108 -553h250q219 0 312 74.5t93 245.5q0 130 -86 183.5t-305 53.5q-43 0 -137 -3q-13 -1 -19 -1zM647 1456q181 0 284 -93t103 -253
q0 -119 -63.5 -208t-190.5 -148q92 -46 140.5 -129t48.5 -193q0 -101 -45 -190t-127 -152q-65 -49 -149 -69.5t-251 -20.5h-407l282 1456h375z" />
    <glyph glyph-name="C" unicode="C" horiz-adv-x="1540" 
d="M1378 979q-52 178 -183.5 273.5t-326.5 95.5q-134 0 -253 -49t-212 -142q-95 -95 -146.5 -226.5t-51.5 -277.5q0 -254 143.5 -402.5t388.5 -148.5q176 0 317.5 81t239.5 237h166q-101 -215 -292 -332t-441 -117q-306 0 -491 180t-185 476q0 182 57 338t164 266
q120 124 267.5 188t314.5 64q271 0 451 -133t231 -371h-158z" />
    <glyph glyph-name="D" unicode="D" horiz-adv-x="1360" 
d="M629 1325h-254l-230 -1194h304q312 0 503 188.5t191 495.5q0 249 -132 379.5t-382 130.5zM618 1456q319 0 495.5 -166t176.5 -467q0 -372 -228 -597.5t-605 -225.5h-475l278 1456h358z" />
    <glyph glyph-name="E" unicode="E" horiz-adv-x="1028" 
d="M-8 0l280 1456h748l-25 -135h-606l-100 -518h604l-25 -133h-606l-104 -537h606l-27 -133h-745z" />
    <glyph glyph-name="F" unicode="F" horiz-adv-x="991" 
d="M-8 0l280 1456h748l-25 -135h-606l-100 -518h604l-25 -133h-606l-129 -670h-141z" />
    <glyph glyph-name="G" unicode="G" horiz-adv-x="1602" 
d="M1380 977q-47 176 -175.5 272.5t-315.5 96.5q-148 0 -274.5 -52t-223.5 -151q-91 -95 -139.5 -223t-48.5 -275q0 -243 144.5 -389.5t383.5 -146.5q219 0 391 122t236 324h-740l29 133h889q-6 -97 -38 -192.5t-83 -169.5q-116 -171 -294 -264t-388 -93q-312 0 -495 180.5
t-183 487.5q0 181 57 335.5t164 264.5q119 121 267.5 183.5t320.5 62.5q271 0 440 -128t228 -378h-152z" />
    <glyph glyph-name="H" unicode="H" horiz-adv-x="1251" 
d="M-10 0l282 1456h140l-125 -651h708l127 651h140l-283 -1456h-139l129 672h-709l-131 -672h-139z" />
    <glyph glyph-name="I" unicode="I" horiz-adv-x="412" 
d="M-4 0l283 1456h141l-283 -1456h-141z" />
    <glyph glyph-name="J" unicode="J" horiz-adv-x="868" 
d="M698 436q-45 -242 -155 -353.5t-299 -111.5q-159 0 -254.5 87.5t-95.5 232.5q0 17 0.5 25.5t1.5 15.5h139v-17q0 -102 54.5 -156.5t156.5 -54.5q136 0 209 95.5t127 378.5l170 878h139z" />
    <glyph glyph-name="K" unicode="K" horiz-adv-x="1014" 
d="M-10 0l282 1456h140l-150 -778l731 778h181l-654 -690l406 -766h-158l-354 647l-201 -203l-84 -444h-139z" />
    <glyph glyph-name="L" unicode="L" horiz-adv-x="844" 
d="M-8 0l280 1456h140l-254 -1323h606l-27 -133h-745z" />
    <glyph glyph-name="M" unicode="M" horiz-adv-x="1802" 
d="M-14 0l282 1456h197l317 -1343l793 1343h242l-283 -1456h-148l265 1327l-793 -1327h-180l-303 1286l-250 -1286h-139z" />
    <glyph glyph-name="N" unicode="N" horiz-adv-x="1427" 
d="M-10 0l282 1456h154l629 -1257l239 1257h142l-283 -1456h-152l-628 1257l-244 -1257h-139z" />
    <glyph glyph-name="O" unicode="O" horiz-adv-x="1602" 
d="M57 633q0 193 62.5 353.5t181.5 275.5q114 110 259.5 166.5t318.5 56.5q303 0 484 -182t181 -486q0 -378 -226.5 -612t-596.5 -234q-303 0 -483.5 180.5t-180.5 481.5zM205 635q0 -241 142.5 -383.5t381.5 -142.5q295 0 481.5 197.5t186.5 512.5q0 241 -143.5 385
t-383.5 144q-128 0 -241 -44t-207 -130q-107 -98 -162 -235t-55 -304z" />
    <glyph glyph-name="P" unicode="P" horiz-adv-x="1128" 
d="M387 1321l-119 -621h230q127 0 197.5 13.5t115.5 44.5q63 42 101 121.5t38 171.5q0 145 -87.5 207.5t-297.5 62.5h-178zM588 1456q133 0 209 -17.5t133 -58.5q83 -56 127.5 -144t44.5 -194q0 -224 -152 -349.5t-428 -125.5h-280l-111 -567h-143l284 1456h316z" />
    <glyph glyph-name="Q" unicode="Q" horiz-adv-x="1602" 
d="M220 500q106 39 198.5 58.5t173.5 19.5q167 0 315 -71.5t283 -217.5q102 93 154.5 227t52.5 303q0 242 -143 384.5t-384 142.5q-162 0 -300 -69.5t-232 -197.5q-65 -90 -99 -198t-34 -226q0 -37 3.5 -75.5t11.5 -79.5zM254 387q68 -139 191 -210t296 -71q92 0 179.5 26.5
t173.5 80.5q-132 131 -250.5 188.5t-257.5 57.5q-74 0 -155.5 -18t-176.5 -54zM1206 117q-104 -75 -218.5 -110.5t-252.5 -35.5q-311 0 -494.5 180t-183.5 484q0 193 62 352.5t182 274.5q117 110 262.5 166.5t315.5 56.5q304 0 484.5 -182t180.5 -488q0 -192 -58.5 -347
t-174.5 -271q47 -24 90.5 -35.5t83.5 -11.5q15 0 29.5 1.5t29.5 3.5l-18 -110q-14 -2 -30 -3t-46 -1q-73 0 -135 19.5t-109 56.5z" />
    <glyph glyph-name="R" unicode="R" horiz-adv-x="1204" 
d="M-12 0l282 1456h344q280 0 416.5 -106.5t136.5 -323.5q0 -198 -131.5 -326t-365.5 -155l299 -545h-170l-342 662h47q243 0 379.5 98.5t136.5 273.5q0 71 -25.5 127t-74.5 94q-52 40 -127.5 56t-264.5 16h-141l-256 -1327h-143z" />
    <glyph glyph-name="S" unicode="S" horiz-adv-x="977" 
d="M3 414l142 -1q-1 -6 -1.5 -13.5t-0.5 -22.5q0 -125 75.5 -199t203.5 -74q125 0 209 83.5t84 205.5q0 86 -43 147.5t-168 137.5q-19 11 -60 34q-147 81 -213 152q-40 45 -60.5 100t-20.5 117q0 165 122.5 282.5t296.5 117.5q168 0 270.5 -101t102.5 -266q0 -21 -0.5 -32
t-1.5 -19h-143q0 6 1 17.5t1 17.5q0 123 -61.5 188.5t-176.5 65.5q-113 0 -187.5 -70.5t-74.5 -175.5q0 -143 260 -290q48 -27 74 -42q117 -67 177 -160.5t60 -210.5q0 -179 -134.5 -306.5t-325.5 -127.5q-188 0 -299 108.5t-111 291.5q0 18 0.5 27.5t2.5 17.5z" />
    <glyph glyph-name="T" unicode="T" horiz-adv-x="786" 
d="M176 0l250 1331h-342l25 125h819l-23 -125h-334l-256 -1331h-139z" />
    <glyph glyph-name="U" unicode="U" horiz-adv-x="1186" 
d="M403 1456l-184 -948q-6 -31 -9 -61.5t-3 -59.5q0 -138 75.5 -212.5t215.5 -74.5q158 0 240 100t141 402l163 854h142l-166 -881v0q-58 -290 -125 -403q-60 -100 -163.5 -150.5t-248.5 -50.5q-193 0 -302 105t-109 293q0 58 26 203v3l166 881h141z" />
    <glyph glyph-name="V" unicode="V" horiz-adv-x="1096" 
d="M72 1456h139l205 -1247l684 1247h151l-809 -1456h-125z" />
    <glyph glyph-name="W" unicode="W" horiz-adv-x="1731" 
d="M96 1456h137l95 -1302l598 1302h123l88 -1304l608 1304h145l-688 -1456h-176l-84 1204l-553 -1204h-176z" />
    <glyph glyph-name="X" unicode="X" horiz-adv-x="1053" 
d="M-10 0h-168l643 764l-320 692h148l266 -579l483 579h166l-594 -708l336 -748h-149l-281 629z" />
    <glyph glyph-name="Y" unicode="Y" horiz-adv-x="948" 
d="M244 0l94 481l-277 975h158l221 -799l523 799h159l-637 -977l-102 -479h-139z" />
    <glyph glyph-name="Z" unicode="Z" horiz-adv-x="1014" 
d="M-90 0l20 133l990 1198h-723l22 125h907l-26 -131l-989 -1204h768l-23 -121h-946z" />
    <glyph glyph-name="bracketleft" unicode="[" horiz-adv-x="541" 
d="M-109 -397l359 1853h342l-25 -133h-198l-310 -1589h199l-27 -131h-340z" />
    <glyph glyph-name="backslash" unicode="\" horiz-adv-x="569" 
d="M301 -190l-139 1675h119l141 -1675h-121z" />
    <glyph glyph-name="bracketright" unicode="]" horiz-adv-x="541" 
d="M571 1456l-358 -1857h-340l25 129h198l310 1589h-201l26 139h340z" />
    <glyph glyph-name="asciicircum" unicode="^" horiz-adv-x="2048" 
d="M1094 1458l530 -557h-143l-457 455l-459 -455h-143l532 557h140z" />
    <glyph glyph-name="underscore" unicode="_" 
d="M1024 -383v-100h-1024v100h1024z" />
    <glyph glyph-name="grave" unicode="`" 
d="M696 1247h-88l-282 350h147z" />
    <glyph glyph-name="a" unicode="a" horiz-adv-x="1284" 
d="M1053 598q0 184 -105.5 297t-277.5 113q-81 0 -155.5 -27.5t-135.5 -79.5q-83 -71 -130.5 -178.5t-47.5 -224.5q0 -180 109 -291t286 -111q192 0 324.5 144.5t132.5 357.5zM1075 0h-145l18 84q-85 -55 -176.5 -83t-189.5 -28q-231 0 -379 148.5t-148 380.5
q0 133 47.5 251t137.5 208q83 83 190 126t229 43q159 0 270 -58.5t177 -176.5l41 205h139z" />
    <glyph glyph-name="b" unicode="b" horiz-adv-x="1284" 
d="M229 502q0 -184 106.5 -297t278.5 -113q80 0 154 27t135 80q84 71 132 178.5t48 224.5q0 179 -110 290.5t-287 111.5q-192 0 -324.5 -145t-132.5 -357zM283 1456h135l-88 -459q81 67 171.5 99t192.5 32q233 0 383 -149t150 -381q0 -133 -47.5 -251t-137.5 -208
q-83 -83 -190 -126.5t-229 -43.5q-160 0 -270.5 58t-176.5 176l-43 -203h-137z" />
    <glyph glyph-name="c" unicode="c" horiz-adv-x="1241" 
d="M1165 387q-73 -202 -223 -310t-356 -108q-235 0 -384 149.5t-149 383.5q0 141 55 266t158 217q80 72 181 108.5t219 36.5q209 0 347.5 -114.5t176.5 -321.5h-148q-22 145 -123.5 228.5t-254.5 83.5q-199 0 -332 -142.5t-133 -355.5q0 -188 106 -302t281 -114
q145 0 254.5 76t169.5 219h155z" />
    <glyph glyph-name="d" unicode="d" horiz-adv-x="1284" 
d="M1053 598q0 184 -105.5 297t-277.5 113q-81 0 -155.5 -27.5t-135.5 -79.5q-83 -71 -130.5 -178.5t-47.5 -224.5q0 -180 109 -291t286 -111q192 0 324.5 144.5t132.5 357.5zM1069 0h-145l24 104q-82 -65 -175 -98t-195 -33q-228 0 -375.5 149t-147.5 380q0 133 47.5 251
t137.5 208q83 83 190 126t229 43q156 0 268 -58t185 -177l111 561h133z" />
    <glyph glyph-name="e" unicode="e" horiz-adv-x="1241" 
d="M1044 629q-16 176 -121 277.5t-270 101.5q-162 0 -283 -102.5t-163 -276.5h837zM1149 367q-80 -198 -223 -297t-351 -99q-233 0 -381.5 149t-148.5 382q0 141 55 266t158 217q81 72 182.5 108.5t216.5 36.5q238 0 383.5 -153t145.5 -406q0 -25 -0.5 -38t-2.5 -25h-993
q0 -186 106.5 -300t276.5 -114q142 0 246 68t170 205h160z" />
    <glyph glyph-name="f" unicode="f" horiz-adv-x="563" 
d="M268 985h-176l27 115h174q24 195 116 284t269 89h24l-24 -117h-21q-112 0 -163 -55t-70 -201h180l-24 -115h-183l-186 -985h-133z" />
    <glyph glyph-name="g" unicode="g" horiz-adv-x="1284" 
d="M1284 1090l-180 -922q-2 -11 -7 -33q-52 -270 -120 -375q-61 -93 -171 -142.5t-257 -49.5q-212 0 -344.5 96.5t-157.5 267.5h123q34 -116 123.5 -177.5t226.5 -61.5q192 0 294 95.5t130 301.5q-78 -58 -169 -87.5t-193 -29.5q-230 0 -378.5 149t-148.5 380
q0 133 47.5 251t137.5 208q83 83 190 126t229 43q159 0 270 -58.5t177 -176.5l39 195h139zM1053 598q0 184 -105.5 297t-277.5 113q-81 0 -155.5 -27.5t-135.5 -79.5q-83 -71 -130.5 -178.5t-47.5 -224.5q0 -180 109 -291t286 -111q192 0 324.5 144.5t132.5 357.5z" />
    <glyph glyph-name="h" unicode="h" horiz-adv-x="1143" 
d="M414 1456l-92 -461q84 63 166 94t163 31q178 0 289 -100t111 -260q0 -61 -7.5 -127.5t-21.5 -132.5l-100 -500h-136l113 563q9 45 13.5 85t5.5 77q0 126 -70 196t-195 70q-166 0 -265.5 -98.5t-141.5 -306.5l-119 -586h-129l285 1456h131z" />
    <glyph glyph-name="i" unicode="i" horiz-adv-x="412" 
d="M262 1208l47 248h131l-47 -248h-131zM371 1100l-213 -1100h-131l215 1100h129z" />
    <glyph glyph-name="j" unicode="j" horiz-adv-x="412" 
d="M154 -18q-46 -231 -130 -322.5t-243 -91.5q-21 0 -47.5 3t-59.5 9l30 127q21 -3 40 -4.5t37 -1.5q104 0 157 60.5t85 220.5l219 1118h129zM262 1208l47 248h131l-47 -248h-131z" />
    <glyph glyph-name="k" unicode="k" horiz-adv-x="938" 
d="M438 1456l-186 -964l579 608h177l-504 -522l356 -578h-162l-297 473l-192 -199l-53 -274h-131l282 1456h131z" />
    <glyph glyph-name="l" unicode="l" horiz-adv-x="412" 
d="M438 1456l-282 -1456h-131l282 1456h131z" />
    <glyph glyph-name="m" unicode="m" horiz-adv-x="1929" 
d="M127 0h-129l213 1100h133l-22 -105q84 63 166 94t163 31q131 0 225 -54t146 -159q82 107 188 160t236 53q176 0 286.5 -100t110.5 -260q0 -61 -7 -127.5t-21 -132.5l-101 -500h-135l113 564q9 44 13.5 84t4.5 77q0 126 -70 196t-194 70q-167 0 -267 -99t-141 -306
l-116 -586h-136l113 563q9 45 13.5 85t5.5 77q0 126 -70 196t-195 70q-166 0 -265.5 -98.5t-141.5 -306.5z" />
    <glyph glyph-name="n" unicode="n" horiz-adv-x="1143" 
d="M344 1100l-22 -105q84 63 166 94t163 31q178 0 289 -100t111 -260q0 -61 -7.5 -127.5t-21.5 -132.5l-100 -500h-136l113 563q9 45 13.5 85t5.5 77q0 126 -70 196t-195 70q-166 0 -265.5 -98.5t-141.5 -306.5l-119 -586h-129l213 1100h133z" />
    <glyph glyph-name="o" unicode="o" horiz-adv-x="1241" 
d="M647 1012q-195 0 -326 -148t-131 -372q0 -170 108.5 -285t268.5 -115q86 0 162.5 27.5t136.5 81.5q84 73 131 180.5t47 224.5q0 181 -109.5 292.5t-287.5 113.5zM45 504q0 145 54.5 268t158.5 213q84 73 186 111.5t213 38.5q232 0 382.5 -151t150.5 -382q0 -129 -47 -246
t-135 -209q-85 -87 -197.5 -132.5t-245.5 -45.5q-225 0 -372.5 152t-147.5 383z" />
    <glyph glyph-name="p" unicode="p" horiz-adv-x="1284" 
d="M225 504q0 -184 106.5 -296t278.5 -112q81 0 155.5 27.5t135.5 79.5q83 71 130.5 178t47.5 225q0 180 -109 291t-286 111q-192 0 -325.5 -145.5t-133.5 -358.5zM211 1100h143l-26 -111q73 71 164 106t200 35q234 0 383.5 -148.5t149.5 -381.5q0 -132 -48 -250t-139 -209
q-83 -83 -188.5 -125.5t-228.5 -42.5q-157 0 -268.5 57.5t-184.5 176.5l-111 -563h-133z" />
    <glyph glyph-name="q" unicode="q" horiz-adv-x="1284" 
d="M1053 598q0 184 -105.5 297t-277.5 113q-81 0 -155.5 -27.5t-135.5 -79.5q-83 -71 -130.5 -178.5t-47.5 -224.5q0 -180 109 -291t286 -111q192 0 324.5 144.5t132.5 357.5zM999 -356h-135l88 450q-84 -61 -176.5 -92t-191.5 -31q-232 0 -380.5 148.5t-148.5 382.5
q0 133 47.5 251t137.5 208q83 83 190 126t229 43q159 0 270 -58.5t177 -176.5l39 195h139z" />
    <glyph glyph-name="r" unicode="r" horiz-adv-x="635" 
d="M125 0h-129l213 1100h129l-19 -90q65 62 146 92.5t184 30.5h31l-27 -136h-6q-163 0 -263 -86.5t-134 -257.5z" />
    <glyph glyph-name="s" unicode="s" horiz-adv-x="750" 
d="M21 313h131v-4q0 -94 50.5 -152.5t131.5 -58.5q75 0 130.5 59.5t55.5 139.5q0 104 -166 215q-4 3 -6 4q-137 92 -179 156.5t-42 152.5q0 131 86.5 219.5t214.5 88.5q121 0 194.5 -71.5t73.5 -189.5q0 -18 -0.5 -28t-1.5 -16l-129 -1q0 4 1 13.5t1 13.5q0 71 -38 112.5
t-103 41.5q-71 0 -117.5 -47t-46.5 -117q0 -90 173 -209q16 -11 24 -17h1q202 -139 202 -292q0 -157 -96 -257t-247 -100q-130 0 -215.5 86.5t-85.5 218.5q0 16 0.5 24t2.5 15z" />
    <glyph glyph-name="t" unicode="t" horiz-adv-x="573" 
d="M94 0l191 977h-232l23 123h231l70 356h133l-70 -356h232l-25 -123h-231l-189 -977h-133z" />
    <glyph glyph-name="u" unicode="u" horiz-adv-x="1143" 
d="M784 0l23 104q-79 -66 -162 -99.5t-170 -33.5q-178 0 -288.5 100t-110.5 261q0 62 7 128.5t21 133.5l105 506h133l-115 -572q-9 -45 -13.5 -84.5t-4.5 -76.5q0 -126 69.5 -195.5t194.5 -69.5q167 0 266 98t142 306l120 594h129l-212 -1100h-134z" />
    <glyph glyph-name="v" unicode="v" horiz-adv-x="887" 
d="M229 0l-221 1100h148l170 -924l499 924h156l-608 -1100h-144z" />
    <glyph glyph-name="w" unicode="w" horiz-adv-x="1497" 
d="M186 0l-161 1100h145l113 -914l440 914h141l133 -903l433 903h143l-533 -1100h-145l-129 891l-434 -891h-146z" />
    <glyph glyph-name="x" unicode="x" horiz-adv-x="819" 
d="M924 1100l-449 -539l262 -561h-145l-207 444l-367 -444h-157l469 557l-262 543h147l203 -426l352 426h154z" />
    <glyph glyph-name="y" unicode="y" horiz-adv-x="877" 
d="M-41 -356l277 456l-189 1000h127l158 -846l508 846h145l-881 -1456h-145z" />
    <glyph glyph-name="z" unicode="z" horiz-adv-x="901" 
d="M-43 0l25 129l698 838h-535l27 133h713l-23 -119l-706 -848h608l-25 -133h-782z" />
    <glyph glyph-name="braceleft" unicode="{" 
d="M854 1370h-37q-131 0 -177 -49.5t-46 -204.5v-242q0 -168 -43.5 -240t-153.5 -104q110 -31 153.5 -103t43.5 -241v-241q0 -155 45 -204.5t170 -49.5q7 0 22 1t23 1v-107h-47q-197 0 -266.5 72.5t-69.5 296.5v244q0 154 -57 217t-195 63q-7 0 -21.5 -1t-23.5 -1v109
q9 0 23.5 -1t21.5 -1q138 0 195 63t57 217v242q0 223 70 297t266 74h47v-107z" />
    <glyph glyph-name="bar" unicode="|" 
d="M567 1565v-2048h-108v2048h108z" />
    <glyph glyph-name="braceright" unicode="}" 
d="M555 1106v-242q0 -154 57 -217t195 -63q7 0 22 1t23 1v-109q-8 0 -23 1t-22 1q-138 0 -195 -63t-57 -217v-244q0 -223 -69.5 -296t-266.5 -73h-47v107h39q130 0 175.5 49t45.5 203v241q0 171 43 242t154 102q-111 32 -154 103t-43 241v242q0 157 -45 206.5t-170 49.5
q-7 0 -22 -1t-23 -1v107h47q196 0 266 -74t70 -297z" />
    <glyph glyph-name="asciitilde" unicode="~" horiz-adv-x="1706" 
d="M1530 637q-102 -72 -198 -107.5t-189 -35.5q-99 0 -260 57q-20 7 -29 10q-5 2 -16 6q-176 64 -273 64q-83 0 -175 -38t-212 -122v113q106 73 202 109t185 36q104 0 272 -61q11 -4 18 -7q9 -3 31 -11q167 -60 257 -60q85 0 177 38t210 122v-113z" />
    <glyph glyph-name="Adieresis" unicode="&#xc4;" horiz-adv-x="1223" 
d="M883 586l-146 770l-424 -770h570zM-158 0l791 1458h221l287 -1458h-144l-88 453h-667l-244 -453h-156zM886 1644l35 164h142l-35 -164h-142zM518 1644l33 164h143l-35 -164h-141z" />
    <glyph glyph-name="Aring" unicode="&#xc5;" horiz-adv-x="1223" 
d="M616 1742q0 -58 42.5 -100.5t101.5 -42.5q61 0 103 42t42 102t-42 102.5t-103 42.5q-57 0 -98.5 -42t-45.5 -104zM530 1743q0 97 67.5 164t164.5 67q96 0 162.5 -67t66.5 -164t-66 -163.5t-163 -66.5t-164.5 66.5t-67.5 163.5zM883 586l-146 770l-424 -770h570zM-158 0
l791 1458h221l287 -1458h-144l-88 453h-667l-244 -453h-156z" />
    <glyph glyph-name="Ccedilla" unicode="&#xc7;" horiz-adv-x="1540" 
d="M1378 979q-52 178 -183.5 273.5t-326.5 95.5q-134 0 -253 -49t-212 -142q-95 -95 -146.5 -226.5t-51.5 -277.5q0 -254 143.5 -402.5t388.5 -148.5q176 0 317.5 81t239.5 237h166q-101 -215 -292 -332t-441 -117q-306 0 -491 180t-185 476q0 182 57 338t164 266
q120 124 267.5 188t314.5 64q271 0 451 -133t231 -371h-158zM428 -416l27 78q67 -19 121 -29t92 -10q68 0 103.5 28.5t35.5 82.5q0 47 -39 67.5t-131 20.5h-30l61 178h64l-37 -111h20q100 0 152.5 -39.5t52.5 -115.5q0 -92 -62.5 -143.5t-175.5 -51.5q-54 0 -115.5 11
t-138.5 34z" />
    <glyph glyph-name="Eacute" unicode="&#xc9;" horiz-adv-x="1028" 
d="M-8 0l280 1456h748l-25 -135h-606l-100 -518h604l-25 -133h-606l-104 -537h606l-27 -133h-745zM621 1597h-92l245 350h146z" />
    <glyph glyph-name="Ntilde" unicode="&#xd1;" horiz-adv-x="1427" 
d="M-10 0l282 1456h154l629 -1257l239 1257h142l-283 -1456h-152l-628 1257l-244 -1257h-139zM1184 1857q-33 -96 -78 -139t-113 -43q-11 0 -25.5 2.5t-41.5 9.5l-95 29q-17 5 -26 6.5t-19 1.5q-30 0 -52.5 -18.5t-37.5 -55.5h-80q38 101 81 142t108 41q16 0 29.5 -2
t25.5 -6l94 -29q4 -1 11 -3q33 -9 47 -9q33 0 55.5 18t36.5 55h80z" />
    <glyph glyph-name="Odieresis" unicode="&#xd6;" horiz-adv-x="1602" 
d="M57 633q0 193 62.5 353.5t181.5 275.5q114 110 259.5 166.5t318.5 56.5q303 0 484 -182t181 -486q0 -378 -226.5 -612t-596.5 -234q-303 0 -483.5 180.5t-180.5 481.5zM205 635q0 -241 142.5 -383.5t381.5 -142.5q295 0 481.5 197.5t186.5 512.5q0 241 -143.5 385
t-383.5 144q-128 0 -241 -44t-207 -130q-107 -98 -162 -235t-55 -304zM1036 1644l35 164h142l-35 -164h-142zM668 1644l33 164h143l-35 -164h-141z" />
    <glyph glyph-name="Udieresis" unicode="&#xdc;" horiz-adv-x="1186" 
d="M403 1456l-184 -948q-6 -31 -9 -61.5t-3 -59.5q0 -138 75.5 -212.5t215.5 -74.5q158 0 240 100t141 402l163 854h142l-166 -881v0q-58 -290 -125 -403q-60 -100 -163.5 -150.5t-248.5 -50.5q-193 0 -302 105t-109 293q0 58 26 203v3l166 881h141zM862 1644l35 164h142
l-35 -164h-142zM494 1644l33 164h143l-35 -164h-141z" />
    <glyph glyph-name="aacute" unicode="&#xe1;" horiz-adv-x="1284" 
d="M1053 598q0 184 -105.5 297t-277.5 113q-81 0 -155.5 -27.5t-135.5 -79.5q-83 -71 -130.5 -178.5t-47.5 -224.5q0 -180 109 -291t286 -111q192 0 324.5 144.5t132.5 357.5zM1075 0h-145l18 84q-85 -55 -176.5 -83t-189.5 -28q-231 0 -379 148.5t-148 380.5
q0 133 47.5 251t137.5 208q83 83 190 126t229 43q159 0 270 -58.5t177 -176.5l41 205h139zM727 1247h-92l245 350h146z" />
    <glyph glyph-name="agrave" unicode="&#xe0;" horiz-adv-x="1284" 
d="M1053 598q0 184 -105.5 297t-277.5 113q-81 0 -155.5 -27.5t-135.5 -79.5q-83 -71 -130.5 -178.5t-47.5 -224.5q0 -180 109 -291t286 -111q192 0 324.5 144.5t132.5 357.5zM1075 0h-145l18 84q-85 -55 -176.5 -83t-189.5 -28q-231 0 -379 148.5t-148 380.5
q0 133 47.5 251t137.5 208q83 83 190 126t229 43q159 0 270 -58.5t177 -176.5l41 205h139zM878 1247h-88l-282 350h147z" />
    <glyph glyph-name="acircumflex" unicode="&#xe2;" horiz-adv-x="1284" 
d="M1053 598q0 184 -105.5 297t-277.5 113q-81 0 -155.5 -27.5t-135.5 -79.5q-83 -71 -130.5 -178.5t-47.5 -224.5q0 -180 109 -291t286 -111q192 0 324.5 144.5t132.5 357.5zM1075 0h-145l18 84q-85 -55 -176.5 -83t-189.5 -28q-231 0 -379 148.5t-148 380.5
q0 133 47.5 251t137.5 208q83 83 190 126t229 43q159 0 270 -58.5t177 -176.5l41 205h139zM1034 1247h-80l-145 250l-236 -250h-90l266 350h131z" />
    <glyph glyph-name="adieresis" unicode="&#xe4;" horiz-adv-x="1284" 
d="M1053 598q0 184 -105.5 297t-277.5 113q-81 0 -155.5 -27.5t-135.5 -79.5q-83 -71 -130.5 -178.5t-47.5 -224.5q0 -180 109 -291t286 -111q192 0 324.5 144.5t132.5 357.5zM1075 0h-145l18 84q-85 -55 -176.5 -83t-189.5 -28q-231 0 -379 148.5t-148 380.5
q0 133 47.5 251t137.5 208q83 83 190 126t229 43q159 0 270 -58.5t177 -176.5l41 205h139zM882 1294l35 164h142l-35 -164h-142zM514 1294l33 164h143l-35 -164h-141z" />
    <glyph glyph-name="atilde" unicode="&#xe3;" horiz-adv-x="1284" 
d="M1053 598q0 184 -105.5 297t-277.5 113q-81 0 -155.5 -27.5t-135.5 -79.5q-83 -71 -130.5 -178.5t-47.5 -224.5q0 -180 109 -291t286 -111q192 0 324.5 144.5t132.5 357.5zM1075 0h-145l18 84q-85 -55 -176.5 -83t-189.5 -28q-231 0 -379 148.5t-148 380.5
q0 133 47.5 251t137.5 208q83 83 190 126t229 43q159 0 270 -58.5t177 -176.5l41 205h139zM1069 1507q-33 -96 -78 -139t-113 -43q-11 0 -25.5 2.5t-41.5 9.5l-95 29q-17 5 -26 6.5t-19 1.5q-30 0 -52.5 -18.5t-37.5 -55.5h-80q38 101 81 142t108 41q16 0 29.5 -2t25.5 -6
l94 -29q4 -1 11 -3q33 -9 47 -9q33 0 55.5 18t36.5 55h80z" />
    <glyph glyph-name="aring" unicode="&#xe5;" horiz-adv-x="1284" 
d="M651 1413q0 -59 42.5 -102t101.5 -43q60 0 102.5 42.5t42.5 102.5t-42 101.5t-103 41.5q-57 0 -98.5 -41t-45.5 -102zM565 1411q0 97 66.5 164t163.5 67q96 0 163.5 -67t67.5 -164q0 -96 -67 -162.5t-164 -66.5t-163.5 66t-66.5 163zM1053 598q0 184 -105.5 297
t-277.5 113q-81 0 -155.5 -27.5t-135.5 -79.5q-83 -71 -130.5 -178.5t-47.5 -224.5q0 -180 109 -291t286 -111q192 0 324.5 144.5t132.5 357.5zM1075 0h-145l18 84q-85 -55 -176.5 -83t-189.5 -28q-231 0 -379 148.5t-148 380.5q0 133 47.5 251t137.5 208q83 83 190 126
t229 43q159 0 270 -58.5t177 -176.5l41 205h139z" />
    <glyph glyph-name="ccedilla" unicode="&#xe7;" horiz-adv-x="1241" 
d="M1165 387q-73 -202 -223 -310t-356 -108q-235 0 -384 149.5t-149 383.5q0 141 55 266t158 217q80 72 181 108.5t219 36.5q209 0 347.5 -114.5t176.5 -321.5h-148q-22 145 -123.5 228.5t-254.5 83.5q-199 0 -332 -142.5t-133 -355.5q0 -188 106 -302t281 -114
q145 0 254.5 76t169.5 219h155zM286 -416l27 78q67 -19 121 -29t92 -10q68 0 103.5 28.5t35.5 82.5q0 47 -39 67.5t-131 20.5h-30l61 178h64l-37 -111h20q100 0 152.5 -39.5t52.5 -115.5q0 -92 -62.5 -143.5t-175.5 -51.5q-54 0 -115.5 11t-138.5 34z" />
    <glyph glyph-name="eacute" unicode="&#xe9;" horiz-adv-x="1241" 
d="M1044 629q-16 176 -121 277.5t-270 101.5q-162 0 -283 -102.5t-163 -276.5h837zM1149 367q-80 -198 -223 -297t-351 -99q-233 0 -381.5 149t-148.5 382q0 141 55 266t158 217q81 72 182.5 108.5t216.5 36.5q238 0 383.5 -153t145.5 -406q0 -25 -0.5 -38t-2.5 -25h-993
q0 -186 106.5 -300t276.5 -114q142 0 246 68t170 205h160zM660 1247h-92l245 350h146z" />
    <glyph glyph-name="egrave" unicode="&#xe8;" horiz-adv-x="1241" 
d="M1044 629q-16 176 -121 277.5t-270 101.5q-162 0 -283 -102.5t-163 -276.5h837zM1149 367q-80 -198 -223 -297t-351 -99q-233 0 -381.5 149t-148.5 382q0 141 55 266t158 217q81 72 182.5 108.5t216.5 36.5q238 0 383.5 -153t145.5 -406q0 -25 -0.5 -38t-2.5 -25h-993
q0 -186 106.5 -300t276.5 -114q142 0 246 68t170 205h160zM811 1247h-88l-282 350h147z" />
    <glyph glyph-name="ecircumflex" unicode="&#xea;" horiz-adv-x="1241" 
d="M1044 629q-16 176 -121 277.5t-270 101.5q-162 0 -283 -102.5t-163 -276.5h837zM1149 367q-80 -198 -223 -297t-351 -99q-233 0 -381.5 149t-148.5 382q0 141 55 266t158 217q81 72 182.5 108.5t216.5 36.5q238 0 383.5 -153t145.5 -406q0 -25 -0.5 -38t-2.5 -25h-993
q0 -186 106.5 -300t276.5 -114q142 0 246 68t170 205h160zM967 1247h-80l-145 250l-236 -250h-90l266 350h131z" />
    <glyph glyph-name="edieresis" unicode="&#xeb;" horiz-adv-x="1241" 
d="M1044 629q-16 176 -121 277.5t-270 101.5q-162 0 -283 -102.5t-163 -276.5h837zM1149 367q-80 -198 -223 -297t-351 -99q-233 0 -381.5 149t-148.5 382q0 141 55 266t158 217q81 72 182.5 108.5t216.5 36.5q238 0 383.5 -153t145.5 -406q0 -25 -0.5 -38t-2.5 -25h-993
q0 -186 106.5 -300t276.5 -114q142 0 246 68t170 205h160zM815 1294l35 164h142l-35 -164h-142zM447 1294l33 164h143l-35 -164h-141z" />
    <glyph glyph-name="iacute" unicode="&#xed;" horiz-adv-x="412" 
d="M371 1100l-213 -1100h-131l215 1100h129zM291 1247h-92l245 350h146z" />
    <glyph glyph-name="igrave" unicode="&#xec;" horiz-adv-x="412" 
d="M371 1100l-213 -1100h-131l215 1100h129zM442 1247h-88l-282 350h147z" />
    <glyph glyph-name="icircumflex" unicode="&#xee;" horiz-adv-x="412" 
d="M371 1100l-213 -1100h-131l215 1100h129zM598 1247h-80l-145 250l-236 -250h-90l266 350h131z" />
    <glyph glyph-name="idieresis" unicode="&#xef;" horiz-adv-x="412" 
d="M371 1100l-213 -1100h-131l215 1100h129zM446 1294l35 164h142l-35 -164h-142zM78 1294l33 164h143l-35 -164h-141z" />
    <glyph glyph-name="ntilde" unicode="&#xf1;" horiz-adv-x="1143" 
d="M344 1100l-22 -105q84 63 166 94t163 31q178 0 289 -100t111 -260q0 -61 -7.5 -127.5t-21.5 -132.5l-100 -500h-136l113 563q9 45 13.5 85t5.5 77q0 126 -70 196t-195 70q-166 0 -265.5 -98.5t-141.5 -306.5l-119 -586h-129l213 1100h133zM985 1507q-33 -96 -78 -139
t-113 -43q-11 0 -25.5 2.5t-41.5 9.5l-95 29q-17 5 -26 6.5t-19 1.5q-30 0 -52.5 -18.5t-37.5 -55.5h-80q38 101 81 142t108 41q16 0 29.5 -2t25.5 -6l94 -29q4 -1 11 -3q33 -9 47 -9q33 0 55.5 18t36.5 55h80z" />
    <glyph glyph-name="oacute" unicode="&#xf3;" horiz-adv-x="1241" 
d="M647 1012q-195 0 -326 -148t-131 -372q0 -170 108.5 -285t268.5 -115q86 0 162.5 27.5t136.5 81.5q84 73 131 180.5t47 224.5q0 181 -109.5 292.5t-287.5 113.5zM45 504q0 145 54.5 268t158.5 213q84 73 186 111.5t213 38.5q232 0 382.5 -151t150.5 -382q0 -129 -47 -246
t-135 -209q-85 -87 -197.5 -132.5t-245.5 -45.5q-225 0 -372.5 152t-147.5 383zM660 1247h-92l245 350h146z" />
    <glyph glyph-name="ograve" unicode="&#xf2;" horiz-adv-x="1241" 
d="M647 1012q-195 0 -326 -148t-131 -372q0 -170 108.5 -285t268.5 -115q86 0 162.5 27.5t136.5 81.5q84 73 131 180.5t47 224.5q0 181 -109.5 292.5t-287.5 113.5zM45 504q0 145 54.5 268t158.5 213q84 73 186 111.5t213 38.5q232 0 382.5 -151t150.5 -382q0 -129 -47 -246
t-135 -209q-85 -87 -197.5 -132.5t-245.5 -45.5q-225 0 -372.5 152t-147.5 383zM811 1247h-88l-282 350h147z" />
    <glyph glyph-name="ocircumflex" unicode="&#xf4;" horiz-adv-x="1241" 
d="M647 1012q-195 0 -326 -148t-131 -372q0 -170 108.5 -285t268.5 -115q86 0 162.5 27.5t136.5 81.5q84 73 131 180.5t47 224.5q0 181 -109.5 292.5t-287.5 113.5zM45 504q0 145 54.5 268t158.5 213q84 73 186 111.5t213 38.5q232 0 382.5 -151t150.5 -382q0 -129 -47 -246
t-135 -209q-85 -87 -197.5 -132.5t-245.5 -45.5q-225 0 -372.5 152t-147.5 383zM967 1247h-80l-145 250l-236 -250h-90l266 350h131z" />
    <glyph glyph-name="odieresis" unicode="&#xf6;" horiz-adv-x="1241" 
d="M647 1012q-195 0 -326 -148t-131 -372q0 -170 108.5 -285t268.5 -115q86 0 162.5 27.5t136.5 81.5q84 73 131 180.5t47 224.5q0 181 -109.5 292.5t-287.5 113.5zM45 504q0 145 54.5 268t158.5 213q84 73 186 111.5t213 38.5q232 0 382.5 -151t150.5 -382q0 -129 -47 -246
t-135 -209q-85 -87 -197.5 -132.5t-245.5 -45.5q-225 0 -372.5 152t-147.5 383zM815 1294l35 164h142l-35 -164h-142zM447 1294l33 164h143l-35 -164h-141z" />
    <glyph glyph-name="otilde" unicode="&#xf5;" horiz-adv-x="1241" 
d="M647 1012q-195 0 -326 -148t-131 -372q0 -170 108.5 -285t268.5 -115q86 0 162.5 27.5t136.5 81.5q84 73 131 180.5t47 224.5q0 181 -109.5 292.5t-287.5 113.5zM45 504q0 145 54.5 268t158.5 213q84 73 186 111.5t213 38.5q232 0 382.5 -151t150.5 -382q0 -129 -47 -246
t-135 -209q-85 -87 -197.5 -132.5t-245.5 -45.5q-225 0 -372.5 152t-147.5 383zM1002 1507q-33 -96 -78 -139t-113 -43q-11 0 -25.5 2.5t-41.5 9.5l-95 29q-17 5 -26 6.5t-19 1.5q-30 0 -52.5 -18.5t-37.5 -55.5h-80q38 101 81 142t108 41q16 0 29.5 -2t25.5 -6l94 -29
q4 -1 11 -3q33 -9 47 -9q33 0 55.5 18t36.5 55h80z" />
    <glyph glyph-name="uacute" unicode="&#xfa;" horiz-adv-x="1143" 
d="M784 0l23 104q-79 -66 -162 -99.5t-170 -33.5q-178 0 -288.5 100t-110.5 261q0 62 7 128.5t21 133.5l105 506h133l-115 -572q-9 -45 -13.5 -84.5t-4.5 -76.5q0 -126 69.5 -195.5t194.5 -69.5q167 0 266 98t142 306l120 594h129l-212 -1100h-134zM654 1247h-92l245 350
h146z" />
    <glyph glyph-name="ugrave" unicode="&#xf9;" horiz-adv-x="1143" 
d="M784 0l23 104q-79 -66 -162 -99.5t-170 -33.5q-178 0 -288.5 100t-110.5 261q0 62 7 128.5t21 133.5l105 506h133l-115 -572q-9 -45 -13.5 -84.5t-4.5 -76.5q0 -126 69.5 -195.5t194.5 -69.5q167 0 266 98t142 306l120 594h129l-212 -1100h-134zM805 1247h-88l-282 350
h147z" />
    <glyph glyph-name="ucircumflex" unicode="&#xfb;" horiz-adv-x="1143" 
d="M784 0l23 104q-79 -66 -162 -99.5t-170 -33.5q-178 0 -288.5 100t-110.5 261q0 62 7 128.5t21 133.5l105 506h133l-115 -572q-9 -45 -13.5 -84.5t-4.5 -76.5q0 -126 69.5 -195.5t194.5 -69.5q167 0 266 98t142 306l120 594h129l-212 -1100h-134zM961 1247h-80l-145 250
l-236 -250h-90l266 350h131z" />
    <glyph glyph-name="udieresis" unicode="&#xfc;" horiz-adv-x="1143" 
d="M784 0l23 104q-79 -66 -162 -99.5t-170 -33.5q-178 0 -288.5 100t-110.5 261q0 62 7 128.5t21 133.5l105 506h133l-115 -572q-9 -45 -13.5 -84.5t-4.5 -76.5q0 -126 69.5 -195.5t194.5 -69.5q167 0 266 98t142 306l120 594h129l-212 -1100h-134zM809 1294l35 164h142
l-35 -164h-142zM441 1294l33 164h143l-35 -164h-141z" />
    <glyph glyph-name="dagger" unicode="&#x2020;" 
d="M291 -229l196 1140h-342l25 119h346l68 424h141l-68 -424h340l-20 -119h-344l-199 -1140h-143z" />
    <glyph glyph-name="degree" unicode="&#xb0;" horiz-adv-x="674" 
d="M545 1174q0 86 -60.5 147t-146.5 61t-147.5 -61t-61.5 -147q0 -87 61 -147t148 -60t147 60t60 147zM338 1452q115 0 195.5 -81.5t80.5 -196.5t-81.5 -197t-196.5 -82q-117 0 -197 81t-80 198q0 116 81.5 197t197.5 81z" />
    <glyph glyph-name="cent" unicode="&#xa2;" horiz-adv-x="1157" 
d="M518 147l-45 -227h-115l45 242q-173 52 -271.5 189.5t-98.5 326.5q0 136 49.5 258t142.5 213q77 75 173.5 112t215.5 37h11l41 209h114l-41 -219q151 -35 245.5 -142t125.5 -276h-139q-22 141 -121 226.5t-240 85.5q-186 0 -312 -143t-126 -355q0 -187 100.5 -300.5
t266.5 -113.5q137 0 241 76t160 217h147q-71 -208 -213.5 -312t-355.5 -104z" />
    <glyph glyph-name="sterling" unicode="&#xa3;" horiz-adv-x="1157" 
d="M-72 0l25 135h211q97 82 142.5 161.5t45.5 168.5q0 47 -13.5 105.5t-41.5 129.5h-238l27 131h168q-19 62 -29 117.5t-10 104.5q0 190 127.5 311t329.5 121q210 0 331.5 -111.5t130.5 -314.5h-137q-10 141 -94.5 217t-230.5 76q-142 0 -233 -91t-91 -231q0 -41 12.5 -89.5
t38.5 -109.5h492l-25 -131h-432q27 -69 40 -127t13 -106q0 -80 -36.5 -161.5t-112.5 -170.5h231q165 0 261.5 96t117.5 283h123q-6 -103 -32 -183.5t-72 -142.5q-80 -103 -180 -145.5t-300 -42.5h-559z" />
    <glyph glyph-name="section" unicode="&#xa7;" 
d="M616 352q71 40 109.5 91.5t38.5 107.5q0 69 -107 161q-11 9 -18 15l-248 215q-65 -34 -102 -83.5t-37 -100.5q0 -42 27 -83.5t110 -117.5zM55 113h148v-7q0 -95 49.5 -148.5t136.5 -53.5q85 0 140 48t55 122q0 59 -33 113.5t-105 113.5l-170 141q-85 72 -127.5 141.5
t-42.5 139.5q0 89 52.5 162t154.5 127q-20 41 -30.5 80.5t-10.5 78.5q0 140 95.5 228t244.5 88q145 0 227.5 -78.5t82.5 -216.5q0 -6 -1 -18.5t-1 -18.5h-138v21q0 86 -46.5 137t-125.5 51q-81 0 -132.5 -46t-51.5 -118q0 -49 29.5 -94t126.5 -125l153 -127
q96 -79 137 -146.5t41 -142.5q0 -92 -56 -168t-161 -125q25 -44 37 -88t12 -92q0 -136 -99 -224.5t-253 -88.5q-158 0 -248 88.5t-90 245.5z" />
    <glyph glyph-name="bullet" unicode="&#x2022;" horiz-adv-x="1208" 
d="M307 762q0 123 87 209t210 86q122 0 208.5 -86.5t86.5 -208.5t-87.5 -209.5t-209.5 -87.5q-123 0 -209 87t-86 210z" />
    <glyph glyph-name="paragraph" unicode="&#xb6;" 
d="M940 1409h-127v-1409h-82v1409h-186v-1409h-84v782q-174 8 -275.5 102.5t-101.5 245.5q0 157 107.5 253t285.5 96h463v-70z" />
    <glyph glyph-name="germandbls" unicode="&#xdf;" horiz-adv-x="1085" 
d="M201 403l92 -4v-14q0 -124 73.5 -203.5t186.5 -79.5q118 0 198 84.5t80 210.5q0 141 -93 218t-265 77h-31l23 117q7 -1 15.5 -1.5t25.5 -0.5q160 0 261 90.5t101 230.5q0 100 -66 164t-169 64q-123 0 -201.5 -86.5t-112.5 -259.5zM-8 0l215 1090q36 185 151 286t289 101
q154 0 256.5 -100.5t102.5 -252.5q0 -135 -66.5 -234t-187.5 -147q108 -32 166.5 -115.5t58.5 -205.5q0 -195 -121.5 -324t-304.5 -129q-143 0 -239.5 68.5t-141.5 200.5l-47 -238h-131z" />
    <glyph glyph-name="registered" unicode="&#xae;" horiz-adv-x="1706" 
d="M850 1071h-158v-303h158q134 0 188 33.5t54 113.5q0 83 -57 119.5t-185 36.5zM874 1157q178 0 263.5 -57t85.5 -176q0 -89 -54 -149t-145 -73l188 -389h-145l-178 371h-197v-371h-127v844h309zM1505 721q0 134 -48 253t-138 210q-94 93 -213.5 142.5t-253.5 49.5
q-130 0 -246.5 -48t-208.5 -140q-95 -97 -145.5 -216.5t-50.5 -248.5t49.5 -247t142.5 -212q94 -93 212 -142.5t247 -49.5q130 0 250.5 50t216.5 144q91 89 138.5 204.5t47.5 250.5zM852 1456q152 0 285.5 -55t236.5 -160q102 -102 156.5 -235.5t54.5 -282.5
q0 -150 -53.5 -281t-157.5 -233q-107 -106 -242 -162.5t-280 -56.5q-147 0 -279.5 55.5t-236.5 161.5q-105 104 -160 237t-55 279q0 144 56.5 279.5t162.5 242.5q101 103 232 157t280 54z" />
    <glyph glyph-name="copyright" unicode="&#xa9;" horiz-adv-x="1706" 
d="M1073 915q-18 80 -75 124t-142 44q-122 0 -190 -95t-68 -267q0 -166 69 -260t189 -94q89 0 151 50.5t78 137.5h115q-11 -125 -108.5 -205t-241.5 -80q-177 0 -279 122t-102 335q0 203 107.5 326t283.5 123q135 0 226.5 -72t103.5 -189h-117zM1505 723q0 132 -48.5 251
t-139.5 210q-94 94 -213 143t-252 49q-132 0 -249 -48t-208 -140q-94 -96 -144 -215.5t-50 -249.5q0 -129 49.5 -247t142.5 -212q94 -93 212 -142.5t247 -49.5q130 0 250.5 50t216.5 144q91 89 138.5 206t47.5 251zM852 1456q149 0 283.5 -55.5t238.5 -159.5
q102 -102 156.5 -235.5t54.5 -282.5q0 -150 -53.5 -281t-157.5 -233q-107 -106 -242 -162.5t-280 -56.5t-278 55.5t-238 161.5q-105 104 -160 237t-55 279q0 145 56.5 279.5t162.5 242.5q101 103 232 157t280 54z" />
    <glyph glyph-name="trademark" unicode="&#x2122;" horiz-adv-x="1706" 
d="M938 1454l166 -422l156 422h116v-530h-71v467l-177 -467h-49l-186 467v-467h-72v530h117zM694 1454v-57h-172v-473h-82v473h-176v57h430z" />
    <glyph glyph-name="acute" unicode="&#xb4;" 
d="M545 1247h-92l245 350h146z" />
    <glyph glyph-name="dieresis" unicode="&#xa8;" 
d="M700 1294l35 164h142l-35 -164h-142zM332 1294l33 164h143l-35 -164h-141z" />
    <glyph glyph-name="notequal" unicode="&#x2260;" horiz-adv-x="1706" 
d="M1288 1110l-205 -264h369v-96h-432l-215 -277h647v-98h-709l-254 -324l-73 60l205 264h-367v98h428l215 277h-643v96h707l253 323z" />
    <glyph glyph-name="AE" unicode="&#xc6;" horiz-adv-x="1782" 
d="M852 586l137 735h-80l-512 -735h455zM307 453l-309 -453h-156l1010 1456h915l-26 -135h-606l-101 -518h606l-26 -133h-604l-105 -537h604l-24 -133h-748l88 453h-518z" />
    <glyph glyph-name="Oslash" unicode="&#xd8;" horiz-adv-x="1602" 
d="M1294 1155l-901 -944q59 -50 146 -76t192 -26q132 0 246.5 43t204.5 127q106 98 160.5 234t54.5 304q0 107 -25.5 190t-77.5 148zM309 293l899 946q-63 54 -149 81.5t-193 27.5q-288 0 -474.5 -202.5t-186.5 -518.5q0 -103 25.5 -184.5t78.5 -149.5zM207 188
q-75 91 -112.5 204t-37.5 251q0 142 38 270t112 236q111 161 283.5 248.5t379.5 87.5q137 0 248 -35t195 -104l172 180l88 -78l-178 -184q75 -97 112 -208.5t37 -242.5q0 -187 -62.5 -348t-178.5 -272q-110 -107 -260 -164.5t-318 -57.5q-137 0 -245.5 34t-186.5 101
l-193 -202l-86 78z" />
    <glyph glyph-name="infinity" unicode="&#x221e;" horiz-adv-x="1706" 
d="M897 559q52 -100 122 -149.5t159 -49.5q106 0 173.5 75t67.5 192q0 113 -62.5 187.5t-156.5 74.5q-86 0 -155 -74t-148 -256zM811 668q-52 99 -121.5 147.5t-159.5 48.5q-106 0 -173.5 -74.5t-67.5 -189.5q0 -112 63 -187t156 -75q87 0 156.5 75t146.5 255zM838 721
q72 144 149 206t182 62q124 0 215 -107.5t91 -265.5q0 -169 -81.5 -273.5t-211.5 -104.5q-95 0 -168 60.5t-146 203.5q-71 -139 -148 -201.5t-173 -62.5q-132 0 -223 106.5t-91 267.5q0 169 81.5 273t211.5 104q97 0 171.5 -64t140.5 -204z" />
    <glyph glyph-name="plusminus" unicode="&#xb1;" horiz-adv-x="1706" 
d="M1452 150v-99h-1198v99h1198zM903 1169v-348h549v-98h-549v-348h-98v348h-551v98h551v348h98z" />
    <glyph glyph-name="lessequal" unicode="&#x2264;" horiz-adv-x="1706" 
d="M1442 139v-98h-1178v98h1178zM1442 1075l-1010 -338l1010 -336v-106l-1178 401v84l1178 402v-107z" />
    <glyph glyph-name="greaterequal" unicode="&#x2265;" horiz-adv-x="1706" 
d="M1442 139v-98h-1178v98h1178zM1442 780v-84l-1178 -401v106l1010 336l-1010 338v107z" />
    <glyph glyph-name="yen" unicode="&#xa5;" horiz-adv-x="1157" 
d="M348 0l109 557h-377l22 111h318l-53 168h-232l21 110h174l-162 502h156l225 -768l514 768h160l-349 -502h177l-23 -110h-231l-115 -168h313l-20 -111h-369l-119 -557h-139z" />
    <glyph glyph-name="mu" unicode="&#xb5;" horiz-adv-x="1110" 
d="M344 1065l-125 -592q-8 -39 -12 -73t-4 -66q0 -117 58 -180.5t167 -63.5q125 0 215 107.5t133 310.5l121 557h139l-164 -770q-12 -55 -17 -85t-5 -48q0 -33 17 -49.5t51 -16.5q7 0 16.5 0.5t19.5 1.5l-20 -110q-19 -5 -41 -8t-45 -3q-70 0 -103.5 36t-33.5 110v14
q-42 -77 -120 -119.5t-179 -42.5q-92 0 -161 40t-108 116l-114 -557h-140l316 1491h139z" />
    <glyph glyph-name="partialdiff" unicode="&#x2202;" horiz-adv-x="1034" 
d="M752 592q12 83 18 160t6 149q0 158 -40 242t-115 84q-50 0 -108 -68.5t-103 -68.5q-31 0 -52.5 20t-21.5 47q0 62 63.5 107t155.5 45q165 0 264 -150.5t99 -406.5q0 -334 -136 -556.5t-333 -222.5q-143 0 -233.5 107t-90.5 278q0 179 109 304.5t262 125.5q98 0 160.5 -48
t95.5 -148zM711 463q0 128 -45 193t-134 65q-113 0 -186.5 -124.5t-73.5 -322.5q0 -126 44.5 -188.5t134.5 -62.5q112 0 186 125.5t74 314.5z" />
    <glyph glyph-name="summation" unicode="&#x2211;" horiz-adv-x="1317" 
d="M49 1473h1223v-144h-1014l705 -766l-740 -813h1057v-143h-1266v133l744 821l-709 772v140z" />
    <glyph glyph-name="product" unicode="&#x220f;" horiz-adv-x="1509" 
d="M160 1473h1188v-1866h-168v1718h-852v-1718h-168v1866z" />
    <glyph glyph-name="pi" unicode="&#x3c0;" horiz-adv-x="1171" 
d="M1120 944h-182l-115 -541q-15 -69 -22.5 -117t-7.5 -71q0 -58 25 -82t85 -24q29 0 51 2.5t41 6.5l-26 -118q-28 -8 -53.5 -12t-47.5 -4q-101 0 -157 53t-56 149q0 46 11 118t45 233l86 407h-365l-199 -944h-139l199 944h-39q-55 0 -85.5 -31.5t-41.5 -99.5h-131
q25 143 88 197.5t215 54.5h848z" />
    <glyph glyph-name="integral" unicode="&#x222b;" horiz-adv-x="985" 
d="M293 -272q104 0 117 713q2 127 4 196q11 486 98 698.5t268 212.5q70 0 114 -37t44 -96q0 -48 -28.5 -76t-78.5 -28q-78 0 -103 69.5t-34 69.5q-105 0 -116 -623q-4 -185 -7 -289q-15 -497 -101 -703t-267 -206q-69 0 -113.5 36t-44.5 91q0 51 31 81t82 30
q36 0 61.5 -16.5t40.5 -51.5q4 -9 7 -33q4 -38 26 -38z" />
    <glyph glyph-name="ordfeminine" unicode="&#xaa;" horiz-adv-x="963" 
d="M791 1104q0 129 -79.5 208t-209.5 79q-61 0 -116.5 -19t-100.5 -55q-63 -49 -98 -124t-35 -159q0 -126 81 -203t213 -77q145 0 245 100.5t100 249.5zM807 686h-109l13 59q-63 -38 -132 -57.5t-143 -19.5q-173 0 -284 104t-111 266q0 93 36 176t103 144q61 58 142 88.5
t174 30.5q119 0 202 -41t131 -123l31 143h105z" />
    <glyph glyph-name="ordmasculine" unicode="&#xba;" horiz-adv-x="932" 
d="M485 1395q-146 0 -244 -103.5t-98 -261.5q0 -119 81 -198.5t202 -79.5q66 0 123 19t100 56q64 50 99.5 125t35.5 158q0 127 -82 205t-217 80zM35 1038q0 102 40.5 188t119.5 150q62 52 138 78.5t161 26.5q173 0 286 -106t113 -267q0 -91 -35 -172.5t-102 -147.5
q-62 -60 -146.5 -91t-185.5 -31q-169 0 -279 105.5t-110 266.5z" />
    <glyph glyph-name="Omega" unicode="&#x3a9;" horiz-adv-x="1579" 
d="M1462 139v-139h-581v127q207 124 313 293.5t106 374.5q0 260 -141.5 420.5t-367.5 160.5q-228 0 -370 -160t-142 -419q0 -207 106.5 -377.5t312.5 -292.5v-127h-581v139h344q-173 133 -256.5 291.5t-83.5 353.5q0 320 188.5 524.5t481.5 204.5q291 0 480 -203.5
t189 -523.5q0 -196 -83.5 -354t-258.5 -293h344z" />
    <glyph glyph-name="ae" unicode="&#xe6;" horiz-adv-x="2214" 
d="M920 -14l28 120q-82 -67 -174.5 -101t-198.5 -34q-232 0 -381 149t-149 382q0 132 48 250t138 209q84 83 191 126t229 43q158 0 269.5 -58.5t177.5 -176.5l37 195h139l-33 -117q75 77 173.5 117t215.5 40q237 0 382 -152.5t145 -404.5q0 -27 -0.5 -40t-2.5 -25h-993v-29
q0 -165 108.5 -275t270.5 -110q143 0 247.5 68t172.5 205h160q-80 -198 -223.5 -297t-348.5 -99q-150 0 -260.5 56.5t-185.5 171.5l-41 -213h-141zM2015 629q-17 176 -121 277.5t-268 101.5q-162 0 -284 -103t-164 -276h837zM1044 598q0 184 -106 297t-279 113
q-80 0 -154.5 -27.5t-135.5 -79.5q-84 -71 -131.5 -178.5t-47.5 -224.5q0 -180 110.5 -292t287.5 -112q192 0 324 145.5t132 358.5z" />
    <glyph glyph-name="oslash" unicode="&#xf8;" horiz-adv-x="1241" 
d="M252 260l625 680q-44 32 -98.5 49t-116.5 17q-202 0 -337 -143t-135 -353q0 -64 15.5 -126t46.5 -124zM961 864l-631 -688q44 -41 103 -61.5t134 -20.5q91 0 172 31.5t146 91.5q73 69 116 172t43 209q0 81 -20 145.5t-63 120.5zM162 160q-59 80 -87 166t-28 186
q0 129 49.5 245t145.5 208q82 79 190.5 121t231.5 42q85 0 160 -21.5t143 -66.5l143 156l84 -74l-141 -157q67 -76 101 -167t34 -198q0 -132 -46.5 -249t-133.5 -208q-80 -82 -191 -127t-235 -45q-100 0 -183.5 27t-156.5 82l-203 -223l-82 84z" />
    <glyph glyph-name="questiondown" unicode="&#xbf;" horiz-adv-x="948" 
d="M618 1085q-14 -126 -60 -217t-132 -163q-42 -36 -114 -91.5t-91 -76.5q-41 -50 -60.5 -97.5t-19.5 -99.5q0 -106 71 -174t183 -68q137 0 230.5 84.5t124.5 235.5h143q-41 -211 -173 -329t-327 -118q-187 0 -296 98t-109 265q0 68 20.5 130t59.5 111q50 64 166 150
q46 34 67 51q77 65 120 140t56 169h141zM690 1456l-43 -229h-141l45 229h139z" />
    <glyph glyph-name="exclamdown" unicode="&#xa1;" horiz-adv-x="588" 
d="M432 1081l-209 -1081h-143l209 1081h143zM506 1456l-45 -227h-144l45 227h144z" />
    <glyph glyph-name="logicalnot" unicode="&#xac;" horiz-adv-x="1706" 
d="M1452 858v-502h-96v402h-1102v100h1198z" />
    <glyph glyph-name="radical" unicode="&#x221a;" horiz-adv-x="1276" 
d="M1276 1636v-71h-125l-594 -1606h-41l-328 899l-114 -39l-19 58l246 86l272 -746l525 1419h178z" />
    <glyph glyph-name="florin" unicode="&#x192;" horiz-adv-x="1157" 
d="M569 -47q-19 -207 -107.5 -290t-287.5 -83h-33l13 133q9 0 25.5 -1t23.5 -1q119 0 167.5 44.5t57.5 162.5l72 834h-256l12 133h256l20 225l1 4q23 251 139 320q42 23 98 36t119 13q11 0 26.5 -1t44.5 -3l-12 -129h-26q-141 0 -188.5 -37.5t-61.5 -190.5l-21 -237h258
l-12 -133h-258z" />
    <glyph glyph-name="approxequal" unicode="&#x2248;" horiz-adv-x="1706" 
d="M1530 469q-106 -74 -201 -109.5t-186 -35.5q-101 0 -291 69.5t-287 69.5q-82 0 -171 -36.5t-216 -123.5v111q107 74 202 109.5t185 35.5q109 0 298.5 -68.5t279.5 -68.5q86 0 175 35.5t212 122.5v-111zM1530 807q-104 -74 -199 -109.5t-188 -35.5q-103 0 -292 69.5
t-286 69.5q-82 0 -171 -36.5t-216 -123.5v113q105 73 201 109t186 36q109 0 298.5 -69.5t279.5 -69.5q84 0 171 34.5t216 123.5v-111z" />
    <glyph glyph-name="Delta" unicode="&#x2206;" horiz-adv-x="1346" 
d="M1139 139l-467 1186l-465 -1186h932zM766 1473l590 -1473h-1366l590 1473h186z" />
    <glyph glyph-name="guillemotleft" unicode="&#xab;" horiz-adv-x="934" 
d="M596 231l-211 320l281 317h131l-275 -317l205 -320h-131zM293 231l-211 320l280 317h132l-275 -317l205 -320h-131z" />
    <glyph glyph-name="guillemotright" unicode="&#xbb;" horiz-adv-x="934" 
d="M96 236l271 325l-203 303h139l197 -303l-267 -325h-137zM383 236l272 325l-202 303h139l194 -303l-264 -325h-139z" />
    <glyph glyph-name="ellipsis" unicode="&#x2026;" horiz-adv-x="2048" 
d="M145 0l45 233h142l-43 -233h-144zM827 0l45 233h142l-43 -233h-144zM1511 0l45 233h142l-43 -233h-144z" />
    <glyph glyph-name="nonbreakingspace" unicode="&#xa0;" horiz-adv-x="1157" 
 />
    <glyph glyph-name="Agrave" unicode="&#xc0;" horiz-adv-x="1223" 
d="M883 586l-146 770l-424 -770h570zM-158 0l791 1458h221l287 -1458h-144l-88 453h-667l-244 -453h-156zM882 1597h-88l-282 350h147z" />
    <glyph glyph-name="Atilde" unicode="&#xc3;" horiz-adv-x="1223" 
d="M883 586l-146 770l-424 -770h570zM-158 0l791 1458h221l287 -1458h-144l-88 453h-667l-244 -453h-156zM1073 1857q-33 -96 -78 -139t-113 -43q-11 0 -25.5 2.5t-41.5 9.5l-95 29q-17 5 -26 6.5t-19 1.5q-30 0 -52.5 -18.5t-37.5 -55.5h-80q38 101 81 142t108 41
q16 0 29.5 -2t25.5 -6l94 -29q4 -1 11 -3q33 -9 47 -9q33 0 55.5 18t36.5 55h80z" />
    <glyph glyph-name="Otilde" unicode="&#xd5;" horiz-adv-x="1602" 
d="M57 633q0 193 62.5 353.5t181.5 275.5q114 110 259.5 166.5t318.5 56.5q303 0 484 -182t181 -486q0 -378 -226.5 -612t-596.5 -234q-303 0 -483.5 180.5t-180.5 481.5zM205 635q0 -241 142.5 -383.5t381.5 -142.5q295 0 481.5 197.5t186.5 512.5q0 241 -143.5 385
t-383.5 144q-128 0 -241 -44t-207 -130q-107 -98 -162 -235t-55 -304zM1223 1857q-33 -96 -78 -139t-113 -43q-11 0 -25.5 2.5t-41.5 9.5l-95 29q-17 5 -26 6.5t-19 1.5q-30 0 -52.5 -18.5t-37.5 -55.5h-80q38 101 81 142t108 41q16 0 29.5 -2t25.5 -6l94 -29q4 -1 11 -3
q33 -9 47 -9q33 0 55.5 18t36.5 55h80z" />
    <glyph glyph-name="OE" unicode="&#x152;" horiz-adv-x="2286" 
d="M205 635q0 -240 143 -384.5t381 -144.5q295 0 482.5 199t187.5 514q0 243 -144 386t-387 143q-293 0 -478 -199t-185 -514zM1247 0l35 170q-125 -102 -262.5 -151.5t-296.5 -49.5q-301 0 -483.5 182.5t-182.5 483.5q0 148 37.5 277.5t110.5 234.5q111 162 284 250t381 88
q216 0 365.5 -83t230.5 -247l62 301h747l-24 -135h-606l-103 -518h606l-24 -133h-606l-105 -537h606l-26 -133h-746z" />
    <glyph glyph-name="oe" unicode="&#x153;" horiz-adv-x="2214" 
d="M1178 629h839q-15 175 -120.5 277t-270.5 102q-160 0 -280.5 -101.5t-167.5 -277.5zM1081 238q-93 -135 -217 -201t-284 -66q-235 0 -384 148.5t-149 382.5q0 139 56 265t159 218q80 72 184 108.5t226 36.5q152 0 270.5 -70.5t183.5 -199.5q96 136 221.5 203t282.5 67
q237 0 383 -152.5t146 -404.5q0 -27 -0.5 -40t-2.5 -25h-993v-29q0 -166 108 -275.5t269 -109.5q144 0 250 68.5t172 204.5h160q-81 -199 -227.5 -297.5t-362.5 -98.5q-153 0 -266.5 67.5t-184.5 199.5zM653 1008q-196 0 -328 -145.5t-132 -360.5q0 -183 105.5 -295.5
t276.5 -112.5q83 0 157 26.5t134 78.5q84 71 131 178t47 225q0 178 -109 291t-282 115z" />
    <glyph glyph-name="endash" unicode="&#x2013;" 
d="M1024 604l-23 -112h-1001l23 112h1001z" />
    <glyph glyph-name="emdash" unicode="&#x2014;" horiz-adv-x="2048" 
d="M2071 604l-23 -112h-2048l23 112h2048z" />
    <glyph glyph-name="quotedblleft" unicode="&#x201c;" horiz-adv-x="692" 
d="M272 1073l-73 383h133l74 -383h-134zM567 1073l-73 383h133l75 -383h-135z" />
    <glyph glyph-name="quotedblright" unicode="&#x201d;" horiz-adv-x="692" 
d="M420 1071l239 385h144l-240 -385h-143zM102 1071l240 385h143l-239 -385h-144z" />
    <glyph glyph-name="quoteleft" unicode="&#x2018;" horiz-adv-x="397" 
d="M270 1073l-73 383h133l76 -383h-136z" />
    <glyph glyph-name="quoteright" unicode="&#x2019;" horiz-adv-x="397" 
d="M113 1071l239 385h144l-240 -385h-143z" />
    <glyph glyph-name="divide" unicode="&#xf7;" horiz-adv-x="1706" 
d="M854 365q45 0 76 -31t31 -76q0 -44 -31 -75t-76 -31t-75.5 31t-30.5 75t31 75.5t75 31.5zM1452 659v-98h-1198v98h1198zM854 1071q44 0 75.5 -32t31.5 -76q0 -45 -31 -76t-76 -31t-75.5 30.5t-30.5 76.5q0 44 31.5 76t74.5 32z" />
    <glyph glyph-name="lozenge" unicode="&#x25ca;" horiz-adv-x="1012" 
d="M506 1409l-385 -817l385 -825l385 825zM506 1653l500 -1061l-500 -1069l-500 1069z" />
    <glyph glyph-name="ydieresis" unicode="&#xff;" horiz-adv-x="877" 
d="M-41 -356l277 456l-189 1000h127l158 -846l508 846h145l-881 -1456h-145zM626 1294l35 164h142l-35 -164h-142zM258 1294l33 164h143l-35 -164h-141z" />
    <glyph glyph-name="Ydieresis" unicode="&#x178;" horiz-adv-x="948" 
d="M244 0l94 481l-277 975h158l221 -799l523 799h159l-637 -977l-102 -479h-139zM766 1644l35 164h142l-35 -164h-142zM398 1644l33 164h143l-35 -164h-141z" />
    <glyph glyph-name="fraction" unicode="&#x2215;" horiz-adv-x="342" 
d="M563 1485h119l-903 -1516h-121z" />
    <glyph glyph-name="currency" unicode="&#xa4;" horiz-adv-x="1241" 
d="M944 887q0 133 -94 227t-227 94q-134 0 -230 -94.5t-96 -226.5q0 -134 96 -230t230 -96q133 0 227 96t94 230zM360 1210q60 46 124.5 68t136.5 22t138.5 -22.5t123.5 -67.5l204 205l66 -65l-205 -205q44 -59 66 -125t22 -135t-22 -134t-66 -124l205 -207l-66 -66
l-204 205q-59 -45 -125 -67.5t-137 -22.5t-135 22t-126 68l-204 -205l-66 66l205 207q-45 61 -67.5 125.5t-22.5 132.5t22.5 133.5t67.5 126.5l-205 205l66 65z" />
    <glyph glyph-name="guilsinglleft" unicode="&#x2039;" horiz-adv-x="631" 
d="M293 231l-211 320l280 317h132l-275 -317l205 -320h-131z" />
    <glyph glyph-name="guilsinglright" unicode="&#x203a;" horiz-adv-x="631" 
d="M96 236l271 325l-203 303h139l197 -303l-267 -325h-137z" />
    <glyph glyph-name="fi" unicode="&#xf001;" horiz-adv-x="979" 
d="M922 1100l-213 -1100h-131l213 1100h131zM811 1208l49 248h131l-49 -248h-131zM268 985h-176l27 115h174q24 195 116 284t269 89h24l-24 -117h-21q-112 0 -163 -55t-70 -201h180l-24 -115h-183l-186 -985h-133z" />
    <glyph glyph-name="fl" unicode="&#xf002;" horiz-adv-x="979" 
d="M991 1456l-282 -1456h-131l282 1456h131zM268 985h-176l27 115h174q24 195 116 284t269 89h24l-24 -117h-21q-112 0 -163 -55t-70 -201h180l-24 -115h-183l-186 -985h-133z" />
    <glyph glyph-name="daggerdbl" unicode="&#x2021;" 
d="M270 -229l70 422h-342l25 118h346l98 600h-342l25 119h346l69 424h140l-66 -424h338l-21 -119h-342l-104 -600h340l-21 -118h-344l-71 -422h-144z" />
    <glyph glyph-name="periodcentered" unicode="&#xb7;" horiz-adv-x="578" 
d="M199 727q0 39 27 66.5t65 27.5t66 -28t28 -66t-27.5 -65t-66.5 -27t-65.5 27t-26.5 65z" />
    <glyph glyph-name="quotesinglbase" unicode="&#x201a;" horiz-adv-x="397" 
d="M-164 -147l254 376h156l-254 -376h-156z" />
    <glyph glyph-name="quotedblbase" unicode="&#x201e;" horiz-adv-x="692" 
d="M154 -147l254 376h155l-254 -376h-155zM-164 -147l254 376h156l-254 -376h-156z" />
    <glyph glyph-name="perthousand" unicode="&#x2030;" horiz-adv-x="2693" 
d="M2015 328q0 -95 66 -160.5t162 -65.5q95 0 161 65.5t66 160.5t-66 161t-161 66t-161.5 -66.5t-66.5 -160.5zM1888 330q0 72 27 137.5t78 116.5q50 50 115.5 77t138.5 27q72 0 137.5 -27t116.5 -77q50 -51 77 -116.5t27 -137.5q0 -73 -26.5 -138t-77.5 -116t-116.5 -78
t-137.5 -27q-73 0 -138.5 27t-115.5 78q-51 50 -78 115.5t-27 138.5zM90 1126q0 72 27.5 137.5t79.5 116.5q50 51 115.5 78t138.5 27q72 0 137.5 -27t116.5 -78q50 -50 77 -115.5t27 -138.5t-26.5 -137.5t-77.5 -116.5q-51 -50 -116.5 -77t-137.5 -27q-73 0 -138.5 27
t-115.5 77q-52 52 -79.5 117.5t-27.5 136.5zM219 1124q0 -95 65.5 -161t159.5 -66q96 0 162 66t66 161t-66 160.5t-162 65.5q-95 0 -160 -65t-65 -161zM1231 1487h115l-777 -1518h-116zM1116 330q0 -96 66 -162t161 -66q96 0 162 66t66 162q0 95 -66 160t-162 65
q-95 0 -161 -65t-66 -160zM987 330q0 72 27 137.5t78 116.5q50 50 115.5 77t138.5 27q72 0 137.5 -27t115.5 -77q51 -51 78 -116.5t27 -137.5q0 -73 -26.5 -138t-78.5 -116q-50 -51 -115.5 -78t-137.5 -27q-73 0 -138.5 27t-115.5 78q-51 50 -78 115.5t-27 138.5z" />
    <glyph glyph-name="Acircumflex" unicode="&#xc2;" horiz-adv-x="1223" 
d="M883 586l-146 770l-424 -770h570zM-158 0l791 1458h221l287 -1458h-144l-88 453h-667l-244 -453h-156zM1038 1597h-80l-145 250l-236 -250h-90l266 350h131z" />
    <glyph glyph-name="Ecircumflex" unicode="&#xca;" horiz-adv-x="1028" 
d="M-8 0l280 1456h748l-25 -135h-606l-100 -518h604l-25 -133h-606l-104 -537h606l-27 -133h-745zM928 1597h-80l-145 250l-236 -250h-90l266 350h131z" />
    <glyph glyph-name="Aacute" unicode="&#xc1;" horiz-adv-x="1223" 
d="M883 586l-146 770l-424 -770h570zM-158 0l791 1458h221l287 -1458h-144l-88 453h-667l-244 -453h-156zM731 1597h-92l245 350h146z" />
    <glyph glyph-name="Edieresis" unicode="&#xcb;" horiz-adv-x="1028" 
d="M-8 0l280 1456h748l-25 -135h-606l-100 -518h604l-25 -133h-606l-104 -537h606l-27 -133h-745zM776 1644l35 164h142l-35 -164h-142zM408 1644l33 164h143l-35 -164h-141z" />
    <glyph glyph-name="Egrave" unicode="&#xc8;" horiz-adv-x="1028" 
d="M-8 0l280 1456h748l-25 -135h-606l-100 -518h604l-25 -133h-606l-104 -537h606l-27 -133h-745zM772 1597h-88l-282 350h147z" />
    <glyph glyph-name="Iacute" unicode="&#xcd;" horiz-adv-x="412" 
d="M-4 0l283 1456h141l-283 -1456h-141zM342 1597h-92l245 350h146z" />
    <glyph glyph-name="Icircumflex" unicode="&#xce;" horiz-adv-x="412" 
d="M-4 0l283 1456h141l-283 -1456h-141zM649 1597h-80l-145 250l-236 -250h-90l266 350h131z" />
    <glyph glyph-name="Idieresis" unicode="&#xcf;" horiz-adv-x="412" 
d="M-4 0l283 1456h141l-283 -1456h-141zM497 1644l35 164h142l-35 -164h-142zM129 1644l33 164h143l-35 -164h-141z" />
    <glyph glyph-name="Igrave" unicode="&#xcc;" horiz-adv-x="412" 
d="M-4 0l283 1456h141l-283 -1456h-141zM493 1597h-88l-282 350h147z" />
    <glyph glyph-name="Oacute" unicode="&#xd3;" horiz-adv-x="1602" 
d="M57 633q0 193 62.5 353.5t181.5 275.5q114 110 259.5 166.5t318.5 56.5q303 0 484 -182t181 -486q0 -378 -226.5 -612t-596.5 -234q-303 0 -483.5 180.5t-180.5 481.5zM205 635q0 -241 142.5 -383.5t381.5 -142.5q295 0 481.5 197.5t186.5 512.5q0 241 -143.5 385
t-383.5 144q-128 0 -241 -44t-207 -130q-107 -98 -162 -235t-55 -304zM881 1597h-92l245 350h146z" />
    <glyph glyph-name="Ocircumflex" unicode="&#xd4;" horiz-adv-x="1602" 
d="M57 633q0 193 62.5 353.5t181.5 275.5q114 110 259.5 166.5t318.5 56.5q303 0 484 -182t181 -486q0 -378 -226.5 -612t-596.5 -234q-303 0 -483.5 180.5t-180.5 481.5zM205 635q0 -241 142.5 -383.5t381.5 -142.5q295 0 481.5 197.5t186.5 512.5q0 241 -143.5 385
t-383.5 144q-128 0 -241 -44t-207 -130q-107 -98 -162 -235t-55 -304zM1188 1597h-80l-145 250l-236 -250h-90l266 350h131z" />
    <glyph glyph-name="apple" unicode="&#xf000;" horiz-adv-x="1618" 
d="M836 1216q-1 6 -1.5 14t-0.5 23q0 124 95 229.5t236 131.5q1 -10 1.5 -23t0.5 -39q0 -131 -103.5 -234.5t-203.5 -103.5h-8q-3 0 -7.5 1t-8.5 1zM1505 403q-114 -247 -205 -342.5t-204 -95.5q-50 0 -131.5 33t-122.5 33q-45 0 -131 -33t-127 -33q-64 0 -128.5 44
t-129.5 132q-102 140 -157.5 295.5t-55.5 300.5q0 219 125 356.5t323 137.5q68 0 155 -34t124 -34q34 0 121.5 34t152.5 34q111 0 199 -39.5t160 -122.5q-102 -65 -151.5 -145.5t-49.5 -182.5q0 -113 60 -200t173 -138z" />
    <glyph glyph-name="Ograve" unicode="&#xd2;" horiz-adv-x="1602" 
d="M57 633q0 193 62.5 353.5t181.5 275.5q114 110 259.5 166.5t318.5 56.5q303 0 484 -182t181 -486q0 -378 -226.5 -612t-596.5 -234q-303 0 -483.5 180.5t-180.5 481.5zM205 635q0 -241 142.5 -383.5t381.5 -142.5q295 0 481.5 197.5t186.5 512.5q0 241 -143.5 385
t-383.5 144q-128 0 -241 -44t-207 -130q-107 -98 -162 -235t-55 -304zM1032 1597h-88l-282 350h147z" />
    <glyph glyph-name="Uacute" unicode="&#xda;" horiz-adv-x="1186" 
d="M403 1456l-184 -948q-6 -31 -9 -61.5t-3 -59.5q0 -138 75.5 -212.5t215.5 -74.5q158 0 240 100t141 402l163 854h142l-166 -881v0q-58 -290 -125 -403q-60 -100 -163.5 -150.5t-248.5 -50.5q-193 0 -302 105t-109 293q0 58 26 203v3l166 881h141zM707 1597h-92l245 350
h146z" />
    <glyph glyph-name="Ucircumflex" unicode="&#xdb;" horiz-adv-x="1186" 
d="M403 1456l-184 -948q-6 -31 -9 -61.5t-3 -59.5q0 -138 75.5 -212.5t215.5 -74.5q158 0 240 100t141 402l163 854h142l-166 -881v0q-58 -290 -125 -403q-60 -100 -163.5 -150.5t-248.5 -50.5q-193 0 -302 105t-109 293q0 58 26 203v3l166 881h141zM1014 1597h-80l-145 250
l-236 -250h-90l266 350h131z" />
    <glyph glyph-name="Ugrave" unicode="&#xd9;" horiz-adv-x="1186" 
d="M403 1456l-184 -948q-6 -31 -9 -61.5t-3 -59.5q0 -138 75.5 -212.5t215.5 -74.5q158 0 240 100t141 402l163 854h142l-166 -881v0q-58 -290 -125 -403q-60 -100 -163.5 -150.5t-248.5 -50.5q-193 0 -302 105t-109 293q0 58 26 203v3l166 881h141zM858 1597h-88l-282 350
h147z" />
    <glyph glyph-name="dotlessi" unicode="&#x131;" horiz-adv-x="412" 
d="M371 1100l-213 -1100h-131l215 1100h129z" />
    <glyph glyph-name="circumflex" unicode="&#x2c6;" 
d="M852 1247h-80l-145 250l-236 -250h-90l266 350h131z" />
    <glyph glyph-name="tilde" unicode="&#x2dc;" 
d="M887 1507q-33 -96 -78 -139t-113 -43q-11 0 -25.5 2.5t-41.5 9.5l-95 29q-17 5 -26 6.5t-19 1.5q-30 0 -52.5 -18.5t-37.5 -55.5h-80q38 101 81 142t108 41q16 0 29.5 -2t25.5 -6l94 -29q4 -1 11 -3q33 -9 47 -9q33 0 55.5 18t36.5 55h80z" />
    <glyph glyph-name="macron" unicode="&#xaf;" 
d="M332 1348l24 114h512l-24 -114h-512z" />
    <glyph glyph-name="breve" unicode="&#x2d8;" 
d="M360 1554h80v-18q0 -65 38.5 -99t111.5 -34q88 0 146.5 37t92.5 114h84q-40 -133 -121.5 -199.5t-207.5 -66.5q-111 0 -168.5 56.5t-57.5 166.5q0 17 0.5 26.5t1.5 16.5z" />
    <glyph glyph-name="dotaccent" unicode="&#x2d9;" 
d="M545 1321l37 172h149l-37 -172h-149z" />
    <glyph glyph-name="ring" unicode="&#x2da;" 
d="M469 1468q0 -65 44 -109t110 -44q64 0 109.5 44.5t45.5 108.5q0 66 -45 111t-110 45t-109.5 -43.5t-44.5 -107.5v-5zM383 1470q0 102 69 171t171 69q101 0 171 -69.5t70 -170.5t-70 -171t-171 -70t-170.5 70t-69.5 171z" />
    <glyph glyph-name="cedilla" unicode="&#xb8;" 
d="M104 -416l27 78q67 -19 121 -29t92 -10q68 0 103.5 28.5t35.5 82.5q0 47 -39 67.5t-131 20.5h-30l61 178h64l-37 -111h20q100 0 152.5 -39.5t52.5 -115.5q0 -92 -62.5 -143.5t-175.5 -51.5q-54 0 -115.5 11t-138.5 34z" />
    <glyph glyph-name="hungarumlaut" unicode="&#x2dd;" 
d="M879 1597h127l-250 -350h-74zM616 1597h127l-231 -350h-72z" />
    <glyph glyph-name="ogonek" unicode="&#x2db;" 
d="M451 0q-73 -63 -109.5 -122.5t-36.5 -113.5q0 -46 24.5 -66t84.5 -20h88l-23 -104h-63q-107 0 -158 39.5t-51 122.5q0 61 46 128t136 136h62z" />
    <glyph glyph-name="caron" unicode="&#x2c7;" 
d="M350 1597h80l148 -247l233 247h92l-266 -348h-133z" />
    <glyph glyph-name="Lslash" unicode="&#x141;" horiz-adv-x="858" 
d="M12 0l115 596l-154 -92l23 149l158 90l139 713h141l-121 -635l301 174l-28 -153l-301 -172l-105 -537h606l-26 -133h-748z" />
    <glyph glyph-name="lslash" unicode="&#x142;" horiz-adv-x="440" 
d="M459 1456l-117 -600l150 84l-31 -147l-146 -84l-139 -709h-131l123 633l-150 -84l31 147l146 86l133 674h131z" />
    <glyph glyph-name="Scaron" unicode="&#x160;" horiz-adv-x="977" 
d="M3 414l142 -1q-1 -6 -1.5 -13.5t-0.5 -22.5q0 -125 75.5 -199t203.5 -74q125 0 209 83.5t84 205.5q0 86 -43 147.5t-168 137.5q-19 11 -60 34q-147 81 -213 152q-40 45 -60.5 100t-20.5 117q0 165 122.5 282.5t296.5 117.5q168 0 270.5 -101t102.5 -266q0 -21 -0.5 -32
t-1.5 -19h-143q0 6 1 17.5t1 17.5q0 123 -61.5 188.5t-176.5 65.5q-113 0 -187.5 -70.5t-74.5 -175.5q0 -143 260 -290q48 -27 74 -42q117 -67 177 -160.5t60 -210.5q0 -179 -134.5 -306.5t-325.5 -127.5q-188 0 -299 108.5t-111 291.5q0 18 0.5 27.5t2.5 17.5zM430 1947h80
l148 -247l233 247h92l-266 -348h-133z" />
    <glyph glyph-name="scaron" unicode="&#x161;" horiz-adv-x="750" 
d="M21 313h131v-4q0 -94 50.5 -152.5t131.5 -58.5q75 0 130.5 59.5t55.5 139.5q0 104 -166 215q-4 3 -6 4q-137 92 -179 156.5t-42 152.5q0 131 86.5 219.5t214.5 88.5q121 0 194.5 -71.5t73.5 -189.5q0 -18 -0.5 -28t-1.5 -16l-129 -1q0 4 1 13.5t1 13.5q0 71 -38 112.5
t-103 41.5q-71 0 -117.5 -47t-46.5 -117q0 -90 173 -209q16 -11 24 -17h1q202 -139 202 -292q0 -157 -96 -257t-247 -100q-130 0 -215.5 86.5t-85.5 218.5q0 16 0.5 24t2.5 15zM213 1597h80l148 -247l233 247h92l-266 -348h-133z" />
    <glyph glyph-name="Zcaron" unicode="&#x17d;" horiz-adv-x="1014" 
d="M-90 0l20 133l990 1198h-723l22 125h907l-26 -131l-989 -1204h768l-23 -121h-946zM448 1947h80l148 -247l233 247h92l-266 -348h-133z" />
    <glyph glyph-name="zcaron" unicode="&#x17e;" horiz-adv-x="901" 
d="M-43 0l25 129l698 838h-535l27 133h713l-23 -119l-706 -848h608l-25 -133h-782zM289 1597h80l148 -247l233 247h92l-266 -348h-133z" />
    <glyph glyph-name="brokenbar" unicode="&#xa6;" 
d="M567 408v-758h-108v758h108zM567 1432v-758h-108v758h108z" />
    <glyph glyph-name="Eth" unicode="&#xd0;" horiz-adv-x="1380" 
d="M639 1456q318 0 494 -166t176 -467q0 -372 -228 -597.5t-606 -225.5h-473l127 674h-131l25 127h131l127 655h358zM649 1325h-256l-100 -524h342l-23 -127h-344l-104 -543h303q313 0 503.5 188.5t190.5 495.5q0 249 -131 379.5t-381 130.5z" />
    <glyph glyph-name="eth" unicode="&#xf0;" horiz-adv-x="1241" 
d="M883 1077l-109 203l-336 -70l-20 97l311 61l-59 117h149l47 -88l226 47l22 -94l-205 -41l146 -277q71 -135 102 -237t31 -197q0 -129 -46.5 -245.5t-133.5 -207.5q-83 -85 -196.5 -130.5t-246.5 -45.5q-227 0 -373.5 150.5t-146.5 384.5q0 141 55.5 266t157.5 215
q84 73 185.5 111.5t211.5 38.5q66 0 123 -14.5t105 -43.5zM647 1012q-195 0 -326 -148t-131 -372q0 -170 108.5 -285t268.5 -115q86 0 162.5 27.5t136.5 81.5q85 73 130.5 179.5t45.5 227.5q0 179 -109 290.5t-286 113.5z" />
    <glyph glyph-name="Yacute" unicode="&#xdd;" horiz-adv-x="948" 
d="M244 0l94 481l-277 975h158l221 -799l523 799h159l-637 -977l-102 -479h-139zM611 1597h-92l245 350h146z" />
    <glyph glyph-name="yacute" unicode="&#xfd;" horiz-adv-x="877" 
d="M-41 -356l277 456l-189 1000h127l158 -846l508 846h145l-881 -1456h-145zM471 1247h-92l245 350h146z" />
    <glyph glyph-name="Thorn" unicode="&#xde;" horiz-adv-x="1128" 
d="M332 1032l-109 -561h223q127 0 198.5 12t115.5 39q62 39 100.5 112.5t38.5 153.5q0 131 -87.5 187.5t-297.5 56.5h-182zM537 1182q260 0 387 -98t127 -298q0 -220 -152 -342t-428 -122h-276l-64 -322h-143l284 1456h140l-52 -274h177z" />
    <glyph glyph-name="thorn" unicode="&#xfe;" horiz-adv-x="1284" 
d="M225 494q0 -175 108 -286.5t277 -111.5q81 0 155.5 27.5t135.5 79.5q83 71 130.5 178t47.5 225q0 180 -109 291t-286 111q-195 0 -327 -146.5t-132 -367.5zM283 1456h133l-94 -479q74 76 167 114.5t201 38.5q236 0 385.5 -148t149.5 -382q0 -132 -48 -250t-139 -209
q-83 -83 -188.5 -125.5t-228.5 -42.5q-165 0 -281.5 64.5t-169.5 183.5l-113 -577h-133z" />
    <glyph glyph-name="minus" unicode="&#x2212;" horiz-adv-x="1706" 
d="M1452 659v-98h-1198v98h1198z" />
    <glyph glyph-name="multiply" unicode="&#xd7;" horiz-adv-x="1706" 
d="M856 680l481 481l70 -69l-481 -482l481 -481l-70 -70l-481 482l-481 -482l-70 70l481 481l-481 482l70 69z" />
    <glyph glyph-name="onesuperior" unicode="&#xb9;" horiz-adv-x="764" 
d="M430 582h-90l154 735l-297 -295l-66 53l385 381h102z" />
    <glyph glyph-name="twosuperior" unicode="&#xb2;" horiz-adv-x="764" 
d="M618 582h-614l16 71l286 226q16 13 49 39q263 206 263 325q0 69 -46.5 109.5t-125.5 40.5q-94 0 -151.5 -55.5t-79.5 -168.5h-90q15 144 97.5 224t215.5 80q119 0 195 -66.5t76 -169.5q0 -75 -51.5 -147.5t-206.5 -198.5l-299 -238h481z" />
    <glyph glyph-name="threesuperior" unicode="&#xb3;" horiz-adv-x="764" 
d="M231 1243h-88q28 119 97 174.5t188 55.5q114 0 184 -60t70 -158q0 -77 -45 -128t-133 -72q79 -25 120.5 -79t41.5 -134q0 -121 -93 -200t-235 -79q-138 0 -217.5 66.5t-79.5 183.5v35h90q0 -3 -1 -11.5t-1 -11.5q0 -85 55 -133.5t152 -48.5q104 0 167.5 55t63.5 146
q0 86 -59 131.5t-178 50.5l16 76h10q106 0 170 45.5t64 120.5q0 60 -45 96.5t-121 36.5q-79 0 -126.5 -38.5t-66.5 -119.5z" />
    <glyph glyph-name="onequarter" unicode="&#xbc;" horiz-adv-x="1800" 
d="M1178 229h352l104 465zM1569 0h-88l32 154h-448l18 90l555 571h109l-127 -586h115l-17 -75h-114zM1292 1485h119l-903 -1516h-121zM410 639h-86l147 686l-285 -274l-61 49l367 354h96z" />
    <glyph glyph-name="onehalf" unicode="&#xbd;" horiz-adv-x="1800" 
d="M1661 0h-586l15 66l272 210q15 12 41 32q258 197 258 308q0 65 -44 103.5t-118 38.5q-92 0 -147.5 -52t-75.5 -157h-86q15 133 94 207.5t205 74.5q112 0 185 -62.5t73 -158.5q0 -70 -48 -137t-198 -184l-284 -223h458zM1292 1485h119l-903 -1516h-121zM410 639h-86
l147 686l-285 -274l-61 49l367 354h96z" />
    <glyph glyph-name="threequarters" unicode="&#xbe;" horiz-adv-x="1800" 
d="M1178 229h352l104 465zM1569 0h-88l32 154h-448l18 90l555 571h109l-127 -586h115l-17 -75h-114zM1292 1485h119l-903 -1516h-121zM221 1257h-84q27 110 92.5 161.5t178.5 51.5q109 0 176 -55.5t67 -146.5q0 -73 -44 -120.5t-128 -66.5q77 -24 116.5 -74.5t39.5 -125.5
q0 -112 -88.5 -185t-222.5 -73t-209.5 62t-75.5 171q0 13 0.5 20t1.5 13h84q0 -5 -1 -12.5t-1 -10.5q0 -80 52.5 -125t146.5 -45q99 0 160 51.5t61 135.5q0 80 -56.5 123t-171.5 49l15 69h10q101 0 162 43t61 113q0 56 -42.5 89.5t-114.5 33.5q-76 0 -121 -35.5t-64 -110.5z
" />
    <glyph glyph-name="franc" unicode="&#x20a3;" horiz-adv-x="1626" 
d="M-8 0l280 1456h748l-25 -135h-606l-100 -518h604l-25 -133h-606l-129 -670h-141zM1116 0h-129l213 1100h129l-19 -90q65 62 146 92.5t184 30.5h31l-27 -136h-6q-163 0 -263 -86.5t-134 -257.5z" />
    <glyph glyph-name="Gbreve" unicode="&#x11e;" horiz-adv-x="1602" 
d="M1380 977q-47 176 -175.5 272.5t-315.5 96.5q-148 0 -274.5 -52t-223.5 -151q-91 -95 -139.5 -223t-48.5 -275q0 -243 144.5 -389.5t383.5 -146.5q219 0 391 122t236 324h-740l29 133h889q-6 -97 -38 -192.5t-83 -169.5q-116 -171 -294 -264t-388 -93q-312 0 -495 180.5
t-183 487.5q0 181 57 335.5t164 264.5q119 121 267.5 183.5t320.5 62.5q271 0 440 -128t228 -378h-152zM751 1904h80v-18q0 -65 38.5 -99t111.5 -34q88 0 146.5 37t92.5 114h84q-40 -133 -121.5 -199.5t-207.5 -66.5q-111 0 -168.5 56.5t-57.5 166.5q0 17 0.5 26.5t1.5 16.5
z" />
    <glyph glyph-name="gbreve" unicode="&#x11f;" horiz-adv-x="1284" 
d="M1284 1090l-180 -922q-2 -11 -7 -33q-52 -270 -120 -375q-61 -93 -171 -142.5t-257 -49.5q-212 0 -344.5 96.5t-157.5 267.5h123q34 -116 123.5 -177.5t226.5 -61.5q192 0 294 95.5t130 301.5q-78 -58 -169 -87.5t-193 -29.5q-230 0 -378.5 149t-148.5 380
q0 133 47.5 251t137.5 208q83 83 190 126t229 43q159 0 270 -58.5t177 -176.5l39 195h139zM1053 598q0 184 -105.5 297t-277.5 113q-81 0 -155.5 -27.5t-135.5 -79.5q-83 -71 -130.5 -178.5t-47.5 -224.5q0 -180 109 -291t286 -111q192 0 324.5 144.5t132.5 357.5zM491 1554
h80v-18q0 -65 38.5 -99t111.5 -34q88 0 146.5 37t92.5 114h84q-40 -133 -121.5 -199.5t-207.5 -66.5q-111 0 -168.5 56.5t-57.5 166.5q0 17 0.5 26.5t1.5 16.5z" />
    <glyph glyph-name="Idotaccent" unicode="&#x130;" horiz-adv-x="412" 
d="M-4 0l283 1456h141l-283 -1456h-141zM342 1671l37 172h149l-37 -172h-149z" />
    <glyph glyph-name="Scedilla" unicode="&#x15e;" horiz-adv-x="977" 
d="M3 414l142 -1q-1 -6 -1.5 -13.5t-0.5 -22.5q0 -125 75.5 -199t203.5 -74q125 0 209 83.5t84 205.5q0 86 -43 147.5t-168 137.5q-19 11 -60 34q-147 81 -213 152q-40 45 -60.5 100t-20.5 117q0 165 122.5 282.5t296.5 117.5q168 0 270.5 -101t102.5 -266q0 -21 -0.5 -32
t-1.5 -19h-143q0 6 1 17.5t1 17.5q0 123 -61.5 188.5t-176.5 65.5q-113 0 -187.5 -70.5t-74.5 -175.5q0 -143 260 -290q48 -27 74 -42q117 -67 177 -160.5t60 -210.5q0 -179 -134.5 -306.5t-325.5 -127.5q-188 0 -299 108.5t-111 291.5q0 18 0.5 27.5t2.5 17.5zM55 -416
l27 78q67 -19 121 -29t92 -10q68 0 103.5 28.5t35.5 82.5q0 47 -39 67.5t-131 20.5h-30l61 178h64l-37 -111h20q100 0 152.5 -39.5t52.5 -115.5q0 -92 -62.5 -143.5t-175.5 -51.5q-54 0 -115.5 11t-138.5 34z" />
    <glyph glyph-name="scedilla" unicode="&#x15f;" horiz-adv-x="750" 
d="M21 313h131v-4q0 -94 50.5 -152.5t131.5 -58.5q75 0 130.5 59.5t55.5 139.5q0 104 -166 215q-4 3 -6 4q-137 92 -179 156.5t-42 152.5q0 131 86.5 219.5t214.5 88.5q121 0 194.5 -71.5t73.5 -189.5q0 -18 -0.5 -28t-1.5 -16l-129 -1q0 4 1 13.5t1 13.5q0 71 -38 112.5
t-103 41.5q-71 0 -117.5 -47t-46.5 -117q0 -90 173 -209q16 -11 24 -17h1q202 -139 202 -292q0 -157 -96 -257t-247 -100q-130 0 -215.5 86.5t-85.5 218.5q0 16 0.5 24t2.5 15zM-33 -416l27 78q67 -19 121 -29t92 -10q68 0 103.5 28.5t35.5 82.5q0 47 -39 67.5t-131 20.5
h-30l61 178h64l-37 -111h20q100 0 152.5 -39.5t52.5 -115.5q0 -92 -62.5 -143.5t-175.5 -51.5q-54 0 -115.5 11t-138.5 34z" />
    <glyph glyph-name="Cacute" unicode="&#x106;" horiz-adv-x="1540" 
d="M1378 979q-52 178 -183.5 273.5t-326.5 95.5q-134 0 -253 -49t-212 -142q-95 -95 -146.5 -226.5t-51.5 -277.5q0 -254 143.5 -402.5t388.5 -148.5q176 0 317.5 81t239.5 237h166q-101 -215 -292 -332t-441 -117q-306 0 -491 180t-185 476q0 182 57 338t164 266
q120 124 267.5 188t314.5 64q271 0 451 -133t231 -371h-158zM887 1597h-92l245 350h146z" />
    <glyph glyph-name="cacute" unicode="&#x107;" horiz-adv-x="1241" 
d="M1165 387q-73 -202 -223 -310t-356 -108q-235 0 -384 149.5t-149 383.5q0 141 55 266t158 217q80 72 181 108.5t219 36.5q209 0 347.5 -114.5t176.5 -321.5h-148q-22 145 -123.5 228.5t-254.5 83.5q-199 0 -332 -142.5t-133 -355.5q0 -188 106 -302t281 -114
q145 0 254.5 76t169.5 219h155zM670 1247h-92l245 350h146z" />
    <glyph glyph-name="Ccaron" unicode="&#x10c;" horiz-adv-x="1540" 
d="M1378 979q-52 178 -183.5 273.5t-326.5 95.5q-134 0 -253 -49t-212 -142q-95 -95 -146.5 -226.5t-51.5 -277.5q0 -254 143.5 -402.5t388.5 -148.5q176 0 317.5 81t239.5 237h166q-101 -215 -292 -332t-441 -117q-306 0 -491 180t-185 476q0 182 57 338t164 266
q120 124 267.5 188t314.5 64q271 0 451 -133t231 -371h-158zM692 1947h80l148 -247l233 247h92l-266 -348h-133z" />
    <glyph glyph-name="ccaron" unicode="&#x10d;" horiz-adv-x="1241" 
d="M1165 387q-73 -202 -223 -310t-356 -108q-235 0 -384 149.5t-149 383.5q0 141 55 266t158 217q80 72 181 108.5t219 36.5q209 0 347.5 -114.5t176.5 -321.5h-148q-22 145 -123.5 228.5t-254.5 83.5q-199 0 -332 -142.5t-133 -355.5q0 -188 106 -302t281 -114
q145 0 254.5 76t169.5 219h155zM475 1597h80l148 -247l233 247h92l-266 -348h-133z" />
    <glyph glyph-name="dcroat" unicode="&#x111;" horiz-adv-x="1298" 
d="M1053 598q0 184 -106 297t-277 113q-197 0 -333 -148.5t-136 -361.5q0 -180 109 -291t286 -111q191 0 324 145t133 357zM1325 1303h141l-20 -107h-141l-236 -1196h-145l24 104q-82 -65 -175 -98t-195 -33q-227 0 -375 149.5t-148 379.5q0 267 173 447.5t431 180.5
q156 0 266.5 -57t186.5 -178l59 301h-292l20 107h293l31 153h133z" />
    <glyph glyph-name="sfthyphen" unicode="&#xad;" horiz-adv-x="659" 
d="M580 616l-25 -133h-471l25 133h471z" />
    <glyph glyph-name="periodcentered" unicode="&#x2219;" horiz-adv-x="578" 
d="M199 727q0 39 27 66.5t65 27.5t66 -28t28 -66t-27.5 -65t-66.5 -27t-65.5 27t-26.5 65z" />
    </font>
</defs>
</svg>
